<svg width="114" height="97" viewBox="0 0 114 97" fill="none" xmlns="http://www.w3.org/2000/svg">
<path d="M75.0249 92.6871C70.723 89.8069 67.6193 86.7785 65.714 83.6019C64.0752 80.4219 63.7681 77.0922 64.7926 73.6125C65.5181 67.4697 66.7818 61.7203 68.5835 56.3642C70.652 51.0048 72.4554 45.782 73.9938 40.6959C75.5192 34.5432 78.1177 28.9105 81.7892 23.7979C85.4608 18.6854 89.5323 13.5678 94.0038 8.44532C93.7242 7.38203 94.516 6.7055 96.3793 6.41571C98.2426 6.12592 100.634 5.42955 103.554 4.32659C106.484 4.02357 108.218 4.00208 108.754 4.26211C109.557 4.51884 110.902 5.43557 112.788 7.0123C113.344 8.87222 113.098 10.6087 112.051 12.2218C111.267 13.565 110.222 15.3114 108.914 17.4611C105.776 22.5671 102.119 28.8796 97.9434 36.3986C94.0343 43.9143 91.4374 49.6803 90.1527 53.6966C90.1657 54.7631 90.0437 55.698 89.7868 56.5013C94.31 55.6451 98.9958 57.1872 103.844 61.1274C108.968 65.8642 110.628 70.7773 108.823 75.8668C107.282 80.6862 103.074 85.5388 96.199 90.4244C91.435 93.417 87.8547 95.0616 85.4581 95.358C83.3249 95.3844 79.8472 94.4941 75.0249 92.6871ZM15.0295 93.431C10.7276 90.5508 7.62393 87.5224 5.71857 84.3458C4.07985 81.1659 3.77274 77.8361 4.79724 74.3564C5.52273 68.2136 6.78637 62.4642 8.58815 57.1081C10.6566 51.7487 12.46 46.526 13.9984 41.4398C15.5238 35.2871 18.1223 29.6545 21.7938 24.5419C25.4654 19.4293 29.5369 14.3117 34.0084 9.18925C33.7288 8.12597 34.5206 7.44943 36.3839 7.15964C38.2472 6.86985 40.6389 6.17348 43.5591 5.07052C46.4889 4.76751 48.2221 4.74601 48.7587 5.00604C49.5619 5.26277 50.9064 6.1795 52.7924 7.75623C53.3483 9.61616 53.1027 11.3527 52.0555 12.9658C51.2718 14.3089 50.2262 16.0554 48.9189 18.2051C45.7806 23.311 42.1237 29.6235 37.948 37.1425C34.0389 44.6583 31.442 50.4242 30.1574 54.4405C30.1703 55.5071 30.0483 56.442 29.7914 57.2452C34.3147 56.3891 39.0004 57.9311 43.8486 61.8713C48.9731 66.6081 50.6329 71.5213 48.8278 76.6107C47.2862 81.4302 43.0782 86.2827 36.2036 91.1683C31.4396 94.161 27.8593 95.8055 25.4627 96.1019C23.3296 96.1283 19.8518 95.2381 15.0295 93.431Z" fill="url(#paint0_linear_161_6)"/>
<path d="M70.9047 89.5841C66.6027 86.7039 63.4991 83.6755 61.5937 80.4989C59.955 77.319 59.6479 73.9892 60.6724 70.5095C61.3979 64.3667 62.6615 58.6173 64.4633 53.2612C66.5317 47.9018 68.3351 42.6791 69.8735 37.5929C71.3989 31.4402 73.9974 25.8075 77.669 20.695C81.3405 15.5824 85.412 10.4648 89.8835 5.34234C89.6039 4.27906 90.3957 3.60252 92.259 3.31274C94.1223 3.02295 96.514 2.32657 99.4342 1.22361C102.364 0.920599 104.097 0.899108 104.634 1.15914C105.437 1.41586 106.782 2.33259 108.667 3.90933C109.223 5.76925 108.978 7.50576 107.931 9.11887C107.147 10.462 106.101 12.2085 104.794 14.3582C101.656 19.4641 97.9988 25.7766 93.8231 33.2956C89.914 40.8114 87.3172 46.5773 86.0325 50.5936C86.0454 51.6602 85.9234 52.5951 85.6665 53.3983C90.1898 52.5422 94.8755 54.0842 99.7237 58.0244C104.848 62.7612 106.508 67.6744 104.703 72.7638C103.161 77.5833 98.9533 82.4358 92.0788 87.3214C87.3147 90.3141 83.7344 91.9586 81.3379 92.255C79.2047 92.2814 75.727 91.3912 70.9047 89.5841ZM10.9093 90.3281C6.60733 87.4478 3.50367 84.4194 1.59831 81.2428C-0.0404121 78.0629 -0.34752 74.7331 0.676982 71.2535C1.40247 65.1107 2.66611 59.3612 4.4679 54.0051C6.53633 48.6458 8.33973 43.423 9.8781 38.3368C11.4035 32.1841 14.002 26.5515 17.6736 21.4389C21.3451 16.3263 25.4166 11.2088 29.8881 6.08627C29.6085 5.02299 30.4004 4.34645 32.2636 4.05667C34.1269 3.76688 36.5187 3.0705 39.4388 1.96754C42.3687 1.66453 44.1019 1.64304 44.6384 1.90307C45.4416 2.15979 46.7862 3.07652 48.6721 4.65326C49.228 6.51318 48.9824 8.24969 47.9353 9.8628C47.1515 11.2059 46.106 12.9524 44.7986 15.1021C41.6604 20.2081 38.0034 26.5206 33.8277 34.0396C29.9187 41.5553 27.3218 47.3213 26.0371 51.3375C26.05 52.4041 25.9281 53.339 25.6711 54.1423C30.1944 53.2861 34.8801 54.8281 39.7283 58.7683C44.8528 63.5052 46.5126 68.4183 44.7076 73.5077C43.166 78.3272 38.9579 83.1797 32.0834 88.0654C27.3193 91.058 23.739 92.7025 21.3425 92.9989C19.2093 93.0254 15.7316 92.1351 10.9093 90.3281Z" fill="url(#paint1_linear_161_6)"/>
<defs>
<linearGradient id="paint0_linear_161_6" x1="56.5814" y1="0.979004" x2="56.5814" y2="96.1025" gradientUnits="userSpaceOnUse">
<stop stop-color="#003049"/>
<stop offset="1" stop-color="#002D44"/>
</linearGradient>
<linearGradient id="paint1_linear_161_6" x1="56.5814" y1="0.979004" x2="56.5814" y2="96.1025" gradientUnits="userSpaceOnUse">
<stop stop-color="#D92211"/>
<stop offset="1" stop-color="#B71000"/>
</linearGradient>
</defs>
</svg>
