<svg width="12" height="13" viewBox="0 0 12 13" fill="none" xmlns="http://www.w3.org/2000/svg">
<path d="M5.32727 1.20917C5.38917 1.07795 5.48498 0.967457 5.60387 0.89019C5.72276 0.812924 5.85998 0.771973 6 0.771973C6.14002 0.771973 6.27724 0.812924 6.39613 0.89019C6.51502 0.967457 6.61083 1.07795 6.67273 1.20917L8.12017 4.27286L11.3578 4.76494C11.4963 4.78595 11.6265 4.84705 11.7335 4.94132C11.8405 5.03558 11.9201 5.15926 11.9633 5.29835C12.0066 5.43744 12.0117 5.58639 11.9781 5.72836C11.9445 5.87033 11.8736 5.99964 11.7733 6.10168L9.43037 8.48681L9.98385 11.8561C10.0075 12.0002 9.99206 12.1483 9.93932 12.2837C9.88658 12.4192 9.79863 12.5364 9.68542 12.6224C9.5722 12.7083 9.43824 12.7594 9.29867 12.7699C9.1591 12.7805 9.0195 12.75 8.89565 12.682L6.00075 11.0913L3.10435 12.682C2.98046 12.7498 2.84086 12.7802 2.70133 12.7695C2.56181 12.7589 2.42792 12.7076 2.31479 12.6216C2.20167 12.5356 2.11382 12.4183 2.06118 12.2829C2.00853 12.1475 1.9932 11.9994 2.01689 11.8553L2.56962 8.48681L0.226709 6.10168C0.126436 5.99964 0.0554934 5.87033 0.0219084 5.72836C-0.0116766 5.58639 -0.00656401 5.43744 0.0366679 5.29835C0.0798997 5.15926 0.159525 5.03558 0.266537 4.94132C0.373548 4.84705 0.503674 4.78595 0.642194 4.76494L3.87983 4.27365L5.32727 1.20917ZM6 1.5555L4.55255 4.61998C4.49873 4.7339 4.4192 4.83244 4.32082 4.9071C4.22244 4.98177 4.10816 5.03032 3.98782 5.04858L0.74944 5.54065L3.09236 7.92579C3.17933 8.0145 3.24437 8.12397 3.28187 8.24477C3.31936 8.36557 3.32819 8.49408 3.3076 8.61923L2.75487 11.9885L5.64976 10.3979C5.75742 10.3387 5.87723 10.3078 5.99888 10.3078C6.12052 10.3078 6.24033 10.3387 6.34799 10.3979L9.24363 11.9885L8.6909 8.61923C8.67031 8.49408 8.67914 8.36557 8.71663 8.24477C8.75413 8.12397 8.81917 8.0145 8.90614 7.92579L11.2491 5.54065L8.01143 5.04858C7.89122 5.03021 7.77709 4.9816 7.67885 4.90694C7.58061 4.83228 7.5012 4.7338 7.44745 4.61998L6 1.5555Z" fill="#FFB11E"/>
<path d="M6 1.5555L4.55255 4.61998C4.49873 4.7339 4.4192 4.83244 4.32082 4.9071C4.22244 4.98177 4.10816 5.03032 3.98782 5.04858L0.74944 5.54065L3.09236 7.92579C3.17933 8.0145 3.24437 8.12397 3.28187 8.24477C3.31936 8.36557 3.32819 8.49408 3.3076 8.61923L2.75487 11.9885L5.64976 10.3979C5.75742 10.3387 5.87723 10.3078 5.99888 10.3078C6.12052 10.3078 6.24033 10.3387 6.34799 10.3979L9.24363 11.9885L8.6909 8.61923C8.67031 8.49408 8.67914 8.36557 8.71663 8.24477C8.75413 8.12397 8.81917 8.0145 8.90614 7.92579L11.2491 5.54065L8.01143 5.04858C7.89122 5.03021 7.77709 4.9816 7.67885 4.90694C7.58061 4.83228 7.5012 4.7338 7.44745 4.61998L6 1.5555Z" fill="#FFB11E"/>
</svg>
