<svg width="24" height="24" viewBox="0 0 24 24" fill="none" xmlns="http://www.w3.org/2000/svg">
<g clip-path="url(#clip0_49_4)">
<path d="M24.0001 12.0732C24.0001 5.44624 18.6271 0.0732422 12.0001 0.0732422C5.37312 0.0732422 0.00012207 5.44624 0.00012207 12.0732C0.00012207 18.0632 4.38812 23.0272 10.1251 23.9272V15.5422H7.07812V12.0722H10.1251V9.43024C10.1251 6.42324 11.9171 4.76124 14.6581 4.76124C15.9701 4.76124 17.3441 4.99624 17.3441 4.99624V7.94924H15.8301C14.3391 7.94924 13.8741 8.87424 13.8741 9.82324V12.0732H17.2021L16.6701 15.5432H13.8741V23.9282C19.6121 23.0272 24.0001 18.0622 24.0001 12.0732Z" fill="white"/>
</g>
<defs>
<clipPath id="clip0_49_4">
<rect width="24" height="24" fill="white" transform="translate(0.00012207)"/>
</clipPath>
</defs>
</svg>
