<svg width="24" height="24" viewBox="0 0 24 24" fill="none" xmlns="http://www.w3.org/2000/svg">
<g clip-path="url(#clip0_49_2)">
<path d="M12.0001 0C8.74012 0 8.33312 0.015 7.05312 0.072C5.77512 0.132 4.90512 0.333 4.14012 0.63C3.35112 0.936 2.68112 1.347 2.01412 2.014C1.34712 2.681 0.935122 3.35 0.630122 4.14C0.333122 4.905 0.131122 5.775 0.0721221 7.053C0.0121221 8.333 0.00012207 8.74 0.00012207 12C0.00012207 15.26 0.0151221 15.667 0.0721221 16.947C0.132122 18.224 0.333122 19.095 0.630122 19.86C0.936122 20.648 1.34712 21.319 2.01412 21.986C2.68112 22.652 3.35012 23.065 4.14012 23.37C4.90612 23.666 5.77612 23.869 7.05312 23.928C8.33312 23.988 8.74012 24 12.0001 24C15.2601 24 15.6671 23.985 16.9471 23.928C18.2241 23.868 19.0951 23.666 19.8601 23.37C20.6481 23.064 21.3191 22.652 21.9861 21.986C22.6521 21.319 23.0651 20.651 23.3701 19.86C23.6661 19.095 23.8691 18.224 23.9281 16.947C23.9881 15.667 24.0001 15.26 24.0001 12C24.0001 8.74 23.9851 8.333 23.9281 7.053C23.8681 5.776 23.6661 4.904 23.3701 4.14C23.0641 3.351 22.6521 2.681 21.9861 2.014C21.3191 1.347 20.6511 0.935 19.8601 0.63C19.0951 0.333 18.2241 0.131 16.9471 0.072C15.6671 0.012 15.2601 0 12.0001 0ZM12.0001 2.16C15.2031 2.16 15.5851 2.176 16.8501 2.231C18.0201 2.286 18.6551 2.48 19.0771 2.646C19.6391 2.863 20.0371 3.123 20.4591 3.542C20.8781 3.962 21.1381 4.361 21.3551 4.923C21.5191 5.345 21.7151 5.98 21.7681 7.15C21.8251 8.416 21.8381 8.796 21.8381 12C21.8381 15.204 21.8231 15.585 21.7641 16.85C21.7031 18.02 21.5081 18.655 21.3431 19.077C21.1191 19.639 20.8641 20.037 20.4441 20.459C20.0251 20.878 19.6201 21.138 19.0641 21.355C18.6441 21.519 17.9991 21.715 16.8291 21.768C15.5551 21.825 15.1801 21.838 11.9701 21.838C8.75912 21.838 8.38412 21.823 7.11112 21.764C5.94012 21.703 5.29512 21.508 4.87512 21.343C4.30612 21.119 3.91512 20.864 3.49612 20.444C3.07512 20.025 2.80612 19.62 2.59612 19.064C2.43112 18.644 2.23712 17.999 2.17612 16.829C2.13112 15.569 2.11512 15.18 2.11512 11.985C2.11512 8.789 2.13112 8.399 2.17612 7.124C2.23712 5.954 2.43112 5.31 2.59612 4.89C2.80612 4.32 3.07512 3.93 3.49612 3.509C3.91512 3.09 4.30612 2.82 4.87512 2.611C5.29512 2.445 5.92612 2.25 7.09612 2.19C8.37112 2.145 8.74612 2.13 11.9551 2.13L12.0001 2.16ZM12.0001 5.838C8.59512 5.838 5.83812 8.598 5.83812 12C5.83812 15.405 8.59812 18.162 12.0001 18.162C15.4051 18.162 18.1621 15.402 18.1621 12C18.1621 8.595 15.4021 5.838 12.0001 5.838ZM12.0001 16C9.79012 16 8.00012 14.21 8.00012 12C8.00012 9.79 9.79012 8 12.0001 8C14.2101 8 16.0001 9.79 16.0001 12C16.0001 14.21 14.2101 16 12.0001 16ZM19.8461 5.595C19.8461 6.39 19.2001 7.035 18.4061 7.035C17.6111 7.035 16.9661 6.389 16.9661 5.595C16.9661 4.801 17.6121 4.156 18.4061 4.156C19.1991 4.155 19.8461 4.801 19.8461 5.595Z" fill="white"/>
</g>
<defs>
<clipPath id="clip0_49_2">
<rect width="24" height="24" fill="white" transform="translate(0.00012207)"/>
</clipPath>
</defs>
</svg>
