<svg width="18" height="24" viewBox="0 0 18 24" fill="none" xmlns="http://www.w3.org/2000/svg">
<path d="M7.5 9.75C7.5 9.55109 7.57902 9.36032 7.71967 9.21967C7.86032 9.07902 8.05109 9 8.25 9H13.5C13.6989 9 13.8897 9.07902 14.0303 9.21967C14.171 9.36032 14.25 9.55109 14.25 9.75C14.25 9.94891 14.171 10.1397 14.0303 10.2803C13.8897 10.421 13.6989 10.5 13.5 10.5H8.25C8.05109 10.5 7.86032 10.421 7.71967 10.2803C7.57902 10.1397 7.5 9.94891 7.5 9.75ZM7.5 14.25C7.5 14.0511 7.57902 13.8603 7.71967 13.7197C7.86032 13.579 8.05109 13.5 8.25 13.5H13.5C13.6989 13.5 13.8897 13.579 14.0303 13.7197C14.171 13.8603 14.25 14.0511 14.25 14.25C14.25 14.4489 14.171 14.6397 14.0303 14.7803C13.8897 14.921 13.6989 15 13.5 15H8.25C8.05109 15 7.86032 14.921 7.71967 14.7803C7.57902 14.6397 7.5 14.4489 7.5 14.25ZM7.5 18.75C7.5 18.5511 7.57902 18.3603 7.71967 18.2197C7.86032 18.079 8.05109 18 8.25 18H13.5C13.6989 18 13.8897 18.079 14.0303 18.2197C14.171 18.3603 14.25 18.5511 14.25 18.75C14.25 18.9489 14.171 19.1397 14.0303 19.2803C13.8897 19.421 13.6989 19.5 13.5 19.5H8.25C8.05109 19.5 7.86032 19.421 7.71967 19.2803C7.57902 19.1397 7.5 18.9489 7.5 18.75ZM6 9.75C6 10.0484 5.88147 10.3345 5.6705 10.5455C5.45952 10.7565 5.17337 10.875 4.875 10.875C4.57663 10.875 4.29048 10.7565 4.0795 10.5455C3.86853 10.3345 3.75 10.0484 3.75 9.75C3.75 9.45163 3.86853 9.16548 4.0795 8.9545C4.29048 8.74353 4.57663 8.625 4.875 8.625C5.17337 8.625 5.45952 8.74353 5.6705 8.9545C5.88147 9.16548 6 9.45163 6 9.75ZM6 14.25C6 14.5484 5.88147 14.8345 5.6705 15.0455C5.45952 15.2565 5.17337 15.375 4.875 15.375C4.57663 15.375 4.29048 15.2565 4.0795 15.0455C3.86853 14.8345 3.75 14.5484 3.75 14.25C3.75 13.9516 3.86853 13.6655 4.0795 13.4545C4.29048 13.2435 4.57663 13.125 4.875 13.125C5.17337 13.125 5.45952 13.2435 5.6705 13.4545C5.88147 13.6655 6 13.9516 6 14.25ZM4.875 19.875C5.17337 19.875 5.45952 19.7565 5.6705 19.5455C5.88147 19.3345 6 19.0484 6 18.75C6 18.4516 5.88147 18.1655 5.6705 17.9545C5.45952 17.7435 5.17337 17.625 4.875 17.625C4.57663 17.625 4.29048 17.7435 4.0795 17.9545C3.86853 18.1655 3.75 18.4516 3.75 18.75C3.75 19.0484 3.86853 19.3345 4.0795 19.5455C4.29048 19.7565 4.57663 19.875 4.875 19.875ZM4.6275 1.5C4.78266 1.06113 5.07012 0.681193 5.45026 0.412542C5.8304 0.143892 6.28451 -0.00024372 6.75 3.09355e-07H11.25C11.7155 -0.00024372 12.1696 0.143892 12.5497 0.412542C12.9299 0.681193 13.2173 1.06113 13.3725 1.5H15.75C16.3467 1.5 16.919 1.73705 17.341 2.15901C17.7629 2.58097 18 3.15326 18 3.75V21.75C18 22.3467 17.7629 22.919 17.341 23.341C16.919 23.7629 16.3467 24 15.75 24H2.25C1.65326 24 1.08097 23.7629 0.659009 23.341C0.237053 22.919 0 22.3467 0 21.75V3.75C0 3.15326 0.237053 2.58097 0.659009 2.15901C1.08097 1.73705 1.65326 1.5 2.25 1.5H4.6275ZM6.75 1.5C6.55109 1.5 6.36032 1.57902 6.21967 1.71967C6.07902 1.86032 6 2.05109 6 2.25C6 2.44891 6.07902 2.63968 6.21967 2.78033C6.36032 2.92098 6.55109 3 6.75 3H11.25C11.4489 3 11.6397 2.92098 11.7803 2.78033C11.921 2.63968 12 2.44891 12 2.25C12 2.05109 11.921 1.86032 11.7803 1.71967C11.6397 1.57902 11.4489 1.5 11.25 1.5H6.75ZM4.6275 3H2.25C2.05109 3 1.86032 3.07902 1.71967 3.21967C1.57902 3.36032 1.5 3.55109 1.5 3.75V21.75C1.5 21.9489 1.57902 22.1397 1.71967 22.2803C1.86032 22.421 2.05109 22.5 2.25 22.5H15.75C15.9489 22.5 16.1397 22.421 16.2803 22.2803C16.421 22.1397 16.5 21.9489 16.5 21.75V3.75C16.5 3.55109 16.421 3.36032 16.2803 3.21967C16.1397 3.07902 15.9489 3 15.75 3H13.3725C13.2173 3.43887 12.9299 3.81881 12.5497 4.08746C12.1696 4.35611 11.7155 4.50024 11.25 4.5H6.75C6.28451 4.50024 5.8304 4.35611 5.45026 4.08746C5.07012 3.81881 4.78266 3.43887 4.6275 3Z" fill="#960D00"/>
</svg>
