<svg width="208" height="208" viewBox="0 0 208 208" fill="none" xmlns="http://www.w3.org/2000/svg">
<path d="M112.909 148.449C111.696 148.925 110.484 149.054 109.27 148.836C108.094 148.6 106.853 148.372 105.546 148.152C104.598 147.809 103.765 147.366 103.047 146.823C102.311 146.242 101.545 145.398 100.748 144.29C100.257 143.64 99.8302 142.729 99.4658 141.557C99.1014 140.385 98.8318 139.169 98.6572 137.908C98.4647 136.609 98.3601 135.547 98.3434 134.721C98.3004 133.445 98.3357 132.039 98.4492 130.504C98.5829 128.913 98.7333 127.407 98.9002 125.986C99.0874 124.509 99.2295 123.331 99.3266 122.452C99.4676 122.062 99.5192 121.875 99.4812 121.893C99.4634 121.855 99.4545 121.836 99.4545 121.836C99.3655 121.646 99.3328 121.083 99.3563 120.146C99.4 119.153 99.4313 118.282 99.4501 117.532C99.7346 116.658 99.8258 116.013 99.7237 115.598C99.6216 115.182 99.4222 114.905 99.1257 114.767C98.9785 114.651 98.9868 114.323 99.1504 113.783C99.314 113.243 99.6216 112.566 100.073 111.752C100.525 110.938 101.072 110.08 101.713 109.177C102.286 108.029 102.981 107.24 103.798 106.81C104.636 106.325 105.228 106.255 105.576 106.602C105.629 106.715 105.856 106.656 106.256 106.422C106.676 106.132 107.143 105.797 107.659 105.416C108.195 104.979 108.673 104.616 109.093 104.327C109.176 104.01 109.533 103.635 110.163 103.2C110.812 102.71 111.585 102.186 112.481 101.627C112.992 101.433 113.475 101.23 113.931 101.016C114.406 100.747 114.787 100.522 115.073 100.341C115.397 100.143 115.559 100.044 115.559 100.044C115.789 99.8437 116.11 99.7393 116.523 99.7309C116.974 99.7047 117.511 99.962 118.135 100.503C118.722 101.061 118.867 101.618 118.572 102.174C118.314 102.711 117.452 103.439 115.985 104.359C114.917 105.045 113.993 105.641 113.211 106.146C112.412 106.614 111.592 107.137 110.752 107.716C109.895 108.257 108.873 108.991 107.687 109.918C106.827 110.553 106.156 111.145 105.673 111.696C105.173 112.209 104.81 112.818 104.586 113.525C104.344 114.194 104.144 115.099 103.984 116.239C103.807 116.553 103.697 117.207 103.653 118.2C103.609 119.193 103.566 120.186 103.522 121.179C103.154 123.157 102.829 124.884 102.548 126.359C102.287 127.778 102.277 128.546 102.518 128.665C102.518 128.665 102.754 128.624 103.225 128.542C103.696 128.46 104.007 128.383 104.159 128.312C104.449 127.944 104.843 127.598 105.338 127.273C105.872 126.93 106.292 126.64 106.598 126.404C108.666 124.693 110.285 123.355 111.453 122.391C112.659 121.408 113.568 120.681 114.18 120.209C114.813 119.68 115.31 119.309 115.671 119.093C116.007 118.426 116.484 118.11 117.102 118.144C117.758 118.16 118.371 118.382 118.942 118.809C119.327 119.137 119.496 119.498 119.449 119.891C119.44 120.266 119.108 120.792 118.453 121.469C117.836 122.129 116.867 123.024 115.544 124.153C114.222 125.283 112.487 126.768 110.34 128.608C108.538 130.194 106.923 131.392 105.496 132.2C104.069 133.008 103.216 133.015 102.935 132.22C102.599 132.193 102.384 132.525 102.291 133.217C102.219 133.852 102.236 134.678 102.342 135.693C102.448 136.709 102.618 137.763 102.853 138.857C103.126 139.933 103.43 140.925 103.763 141.834C104.117 142.687 104.467 143.286 104.815 143.633C105.528 144.363 106.256 144.878 106.999 145.178C107.724 145.44 108.82 145.459 110.289 145.233C111.066 144.915 111.833 144.625 112.589 144.362C113.346 144.1 114.091 143.565 114.824 142.759C116.885 141.329 118.463 140.102 119.558 139.08C120.653 138.057 121.259 137.425 121.378 137.184C121.61 136.89 121.765 136.725 121.841 136.689C121.937 136.598 122.08 136.508 122.269 136.419C122.244 136.662 122.291 136.663 122.41 136.422C122.549 136.126 122.719 135.699 122.92 135.141C123.16 134.566 123.541 133.947 124.064 133.285C124.587 132.623 125.07 132.072 125.512 131.633C125.992 131.177 126.296 131.034 126.423 131.206C126.829 131.479 127.04 132.028 127.057 132.854C127.056 133.641 126.844 134.621 126.42 135.792C125.979 136.925 125.302 138.145 124.387 139.454C122.874 141.46 121.039 143.224 118.881 144.745C116.742 146.304 114.751 147.539 112.909 148.449Z" fill="#960D00"/>
<path d="M134.382 134.211C134.088 133.978 133.791 133.84 133.492 133.795C133.175 133.712 132.982 133.594 132.91 133.442C132.839 133.291 132.749 133.148 132.64 133.014C132.551 132.824 132.395 132.689 132.172 132.608C131.875 132.469 131.654 131.948 131.508 131.044C131.344 130.102 131.252 128.918 131.231 127.492C131.193 126.029 131.223 124.463 131.321 122.797C131.482 122.351 131.599 121.81 131.671 121.174C131.743 120.538 131.82 120.109 131.9 119.885C131.829 119.734 131.824 119.574 131.884 119.407C131.927 119.202 132.024 119.063 132.176 118.992L132.016 118.651C131.927 118.461 131.946 118.058 132.074 117.442C132.24 116.809 132.464 116.102 132.746 115.321C133.011 114.503 133.312 113.713 133.65 112.953C133.97 112.154 134.266 111.552 134.539 111.146C135.087 110.241 135.752 109.536 136.533 109.03C137.353 108.507 138.182 108.35 139.021 108.558C139.188 108.619 139.467 108.719 139.857 108.861C140.248 109.002 140.694 109.163 141.195 109.344C141.717 109.47 142.248 109.614 142.788 109.778L145.776 110.669L146.086 113.996C146.305 115.746 146.795 117.137 147.557 118.169C148.357 119.183 149.199 119.992 150.084 120.595C150.47 120.924 151.036 121.144 151.783 121.257C152.569 121.352 153.245 121.312 153.812 121.139C154.133 121.034 154.471 121.015 154.826 121.08C155.181 121.145 155.456 121.386 155.652 121.804C155.83 122.184 155.896 122.523 155.851 122.822C155.806 123.121 155.612 123.397 155.268 123.651C154.087 124.39 152.768 124.639 151.311 124.396C149.892 124.135 148.318 123.345 146.588 122.027C146.329 121.87 145.925 121.55 145.374 121.068C144.844 120.529 144.515 120.174 144.388 120.002C144.325 120.263 144.21 120.757 144.041 121.484C143.855 122.174 143.702 122.686 143.581 123.02C142.168 127.017 140.697 129.953 139.168 131.827C137.66 133.646 136.064 134.441 134.382 134.211ZM134.936 130.061C135.061 130.327 135.459 130.14 136.132 129.5C136.825 128.805 137.467 127.855 138.06 126.651C138.834 124.945 139.555 123.125 140.223 121.192C140.928 119.24 141.412 117.508 141.675 115.995L141.967 113.358C141.178 112.663 140.484 112.271 139.886 112.181C139.309 112.035 138.868 112.033 138.564 112.176C138.071 112.407 137.544 113.21 136.985 114.584C136.463 115.94 136.008 117.635 135.619 119.669C135.231 121.704 134.97 123.864 134.838 126.148C134.814 127.085 134.82 127.986 134.854 128.849C134.909 129.657 134.936 130.061 134.936 130.061Z" fill="#960D00"/>
<path d="M164.109 122.283C163.656 122.403 163.121 122.399 162.506 122.271C161.91 122.087 161.335 121.848 160.78 121.552C160.245 121.201 159.831 120.863 159.539 120.537C159.504 120.461 159.402 120.392 159.235 120.332C159.106 120.254 159.041 120.215 159.041 120.215C158.836 120.172 158.509 119.723 158.062 118.868C157.635 117.957 157.22 116.924 156.818 115.77C156.415 114.616 156.139 113.681 155.988 112.964C155.893 112.268 155.795 111.318 155.694 110.115C155.575 108.875 155.452 107.774 155.326 106.815L155.315 102.792L152.744 103.233C152.442 103.282 152.143 103.237 151.847 103.098C151.588 102.942 151.423 102.788 151.352 102.636C151.21 102.332 151.211 101.892 151.357 101.314C151.485 100.698 151.625 100.355 151.777 100.283C151.984 100.232 152.335 100.091 152.828 99.8597C153.36 99.6105 153.863 99.3512 154.339 99.0818C154.815 98.8124 155.1 98.6321 155.196 98.5407C155.313 98.3936 155.42 98.2275 155.518 98.0424C155.599 97.8194 155.615 97.5572 155.566 97.2559C155.56 96.7494 155.553 96.2897 155.545 95.8769C155.518 95.4261 155.531 94.9107 155.583 94.3306C155.618 93.7125 155.631 93.1971 155.622 92.7843C155.652 92.3537 155.714 91.7457 155.809 90.9604C155.874 90.6057 155.931 90.1851 155.981 89.6988C156.031 89.2124 156.164 88.7563 156.381 88.3303C156.58 87.8665 156.86 87.5734 157.219 87.4511C157.599 87.2731 158.189 87.2973 158.99 87.5237C159.471 87.7609 159.776 87.9654 159.903 88.1374C160.029 88.3094 160.047 88.7412 159.954 89.4328C159.953 90.2205 159.895 91.0349 159.781 91.8759C159.704 92.6992 159.646 93.5136 159.607 94.3191C159.391 95.4389 159.5 95.9668 159.933 95.9026C160.366 95.8385 161.393 95.2641 163.014 94.1796C164.026 93.4735 164.85 93.1566 165.486 93.2289C166.104 93.2631 166.602 93.5851 166.98 94.1947C167.522 95.0523 167.685 95.6472 167.47 95.9794C167.255 96.3116 166.427 96.8159 164.985 97.4924C164.145 98.0714 163.411 98.5313 162.784 98.8718C162.139 99.1745 161.664 99.397 161.36 99.5394C160.885 99.8088 160.571 99.9791 160.419 100.05C160.267 100.122 160.057 100.266 159.789 100.485C159.521 100.703 159.356 100.943 159.293 101.204C159.25 101.409 159.224 101.699 159.215 102.074C159.134 102.297 159.094 102.802 159.093 103.59C159.092 104.377 159.041 105.258 158.942 106.23C159.158 108.074 159.45 109.882 159.818 111.654C160.169 113.388 160.577 115.049 161.044 116.636C161.337 117.656 161.667 118.311 162.035 118.602C162.385 118.854 162.977 118.832 163.809 118.534C164.245 118.376 164.909 118.064 165.802 117.599C166.715 117.078 167.402 116.617 167.862 116.216C168.191 115.831 168.538 115.436 168.905 115.033C169.253 114.591 169.564 114.168 169.837 113.762C170.089 113.412 170.342 113.062 170.595 112.712C170.829 112.324 170.947 112.13 170.947 112.13C170.994 111.737 171.158 111.545 171.44 111.552C171.721 111.559 172.044 111.754 172.41 112.139C172.623 112.594 172.751 113.113 172.792 113.696C172.834 114.278 172.408 115.196 171.514 116.449C170.304 118.312 169.031 119.696 167.696 120.601C166.381 121.449 165.185 122.01 164.109 122.283Z" fill="#960D00"/>
<path d="M179.63 103.682C178.656 104.37 177.714 104.187 176.802 103.133C175.891 102.078 175.203 100.364 174.737 97.9889C174.751 97.4266 174.736 96.9011 174.692 96.4123C174.63 95.8857 174.537 95.4895 174.413 95.2238C174.333 94.6591 174.256 94.0008 174.181 93.2487C174.126 92.4409 174.098 91.69 174.097 90.996C174.078 90.2641 174.081 89.7765 174.105 89.5334C174.257 89.4621 174.347 89.2581 174.374 88.9212C174.439 88.5665 174.409 88.2563 174.285 87.9906C174.142 87.6869 174.039 87.3186 173.975 86.8857C173.949 86.4349 173.976 86.098 174.057 85.875C173.968 85.6852 173.946 85.4408 173.991 85.1419C174.036 84.8429 174.023 84.6175 173.951 84.4657C173.88 84.3139 173.856 84.1632 173.878 84.0138C173.939 83.8465 173.933 83.6869 173.862 83.5351C173.919 82.7676 173.937 81.6709 173.917 80.245C173.916 78.7634 173.87 77.2337 173.779 75.656C173.725 74.0605 173.648 72.6613 173.546 71.4585C173.445 70.2556 173.341 69.5404 173.235 69.3126C173.168 68.9734 173.175 68.6922 173.256 68.4692C173.336 68.2461 173.546 68.1014 173.886 68.0349C173.984 67.8498 174.109 67.7217 174.261 67.6505C174.395 67.5413 174.538 67.4511 174.69 67.3799C174.69 67.3799 174.782 67.4291 174.967 67.5275C175.19 67.6081 175.506 67.738 175.914 67.917C176.342 68.0403 176.656 68.2638 176.854 68.5876C177.052 68.9115 177.258 69.3011 177.471 69.7566C177.772 70.4955 177.889 71.4362 177.823 72.5786C177.756 73.721 177.678 74.985 177.587 76.3705C177.545 77.2697 177.486 78.1309 177.409 78.9542C177.37 79.7597 177.386 80.2383 177.458 80.3902C177.529 80.542 177.56 80.8053 177.55 81.1802C177.541 81.5551 177.548 82.0147 177.572 82.5592C177.522 83.0456 177.489 83.6168 177.473 84.2728C177.456 84.9288 177.441 85.5379 177.427 86.1002C177.433 86.6068 177.463 86.917 177.516 87.0308C177.549 87.2005 177.563 87.379 177.559 87.5664C177.592 87.736 177.568 87.9324 177.488 88.1554C177.336 88.2266 177.294 88.385 177.363 88.6305C177.452 88.8203 177.497 88.9152 177.497 88.9152C177.568 89.067 177.642 89.4721 177.719 90.1305C177.817 90.7331 177.854 91.5029 177.83 92.4401C178.053 94.79 178.297 96.6435 178.563 98.0005C178.811 99.3196 179.093 100.414 179.409 101.285C179.76 102.232 179.933 102.799 179.929 102.986C179.962 103.156 179.862 103.388 179.63 103.682ZM180.828 114.233C180.231 114.837 179.686 115.255 179.193 115.486C178.719 115.662 178.1 115.675 177.335 115.524C176.293 115.179 175.726 114.612 175.634 113.822C175.561 112.976 175.858 111.98 176.524 110.834C177.012 110.096 177.399 109.637 177.684 109.456C178.008 109.258 178.583 109.151 179.409 109.134C180.885 109.321 181.753 109.887 182.01 110.831C182.306 111.757 181.912 112.891 180.828 114.233Z" fill="#960D00"/>
<path d="M46.0808 122.814C44.3846 123.146 42.6621 123.028 40.9134 122.459C39.2027 121.872 37.8917 121.051 36.9805 119.997C36.7111 119.521 36.3515 118.903 35.9018 118.141C35.49 117.362 35.1239 116.631 34.8034 115.947C34.521 115.246 34.391 114.821 34.4135 114.672C34.4917 114.542 34.4419 114.288 34.2639 113.908C34.1547 113.774 34.058 113.519 33.9736 113.142C33.9095 112.709 33.8453 112.276 33.7812 111.843C33.7574 111.298 33.6831 110.893 33.5585 110.627C33.4161 110.324 33.2903 110.105 33.1812 109.971C33.1812 109.971 33.1847 109.83 33.1917 109.549C33.181 109.23 33.2159 108.959 33.2966 108.736C33.4175 108.401 33.4056 108.129 33.2608 107.919C33.154 107.691 33.1006 107.578 33.1006 107.578C32.9914 107.444 32.9315 107.217 32.9207 106.898C32.91 106.579 32.9259 106.317 32.9686 106.111C33.0089 106 33.0326 105.804 33.0396 105.522C33.0669 105.186 33.0805 105.017 33.0805 105.017C33.0271 104.903 32.9606 104.564 32.881 103.999C32.8393 103.417 32.7989 102.788 32.7596 102.111C32.7025 101.397 32.6531 100.749 32.6115 100.167C32.6078 99.5664 32.6273 99.1636 32.6699 98.9584L32.6165 98.8445C32.5903 98.3937 32.6122 97.8973 32.6821 97.3551C32.631 97.1476 32.5835 96.7994 32.5395 96.3107C32.4777 95.784 32.4438 95.2674 32.4377 94.7609C32.428 93.6541 32.4598 92.3889 32.533 90.9654C32.6264 89.4861 32.7667 88.008 32.9538 86.5311C33.1231 85.0162 33.3168 83.652 33.5348 82.4384C33.773 81.169 34.032 80.1909 34.3118 79.504C34.6188 78.4802 34.9532 77.8603 35.315 77.6444C35.6767 77.4284 36.2758 77.4716 37.1122 77.7739C37.5025 77.915 37.8436 78.1486 38.1355 78.4747C38.4274 78.8009 38.6255 79.1247 38.73 79.4462C38.8546 79.7119 38.8499 79.8993 38.7159 80.0084C38.5214 80.2849 38.3276 80.9083 38.1344 81.8787C37.9234 82.8111 37.6989 83.912 37.4607 85.1814C37.2605 86.4329 37.0781 87.7224 36.9135 89.0499C36.769 90.3216 36.656 91.4628 36.5743 92.4735C36.5971 93.8056 36.5956 94.9872 36.5697 96.018C36.526 97.0109 36.5042 97.5074 36.5042 97.5074C36.5197 97.639 36.5262 97.7517 36.5239 97.8455C36.5215 97.9392 36.5191 98.0329 36.5168 98.1266C36.4993 99.5703 36.5322 100.875 36.6155 102.039C36.681 103.166 36.7731 104.35 36.892 105.591C36.7889 105.964 36.7807 106.292 36.8673 106.575C36.954 106.859 36.9973 107 36.9973 107C36.9036 106.998 36.8912 107.12 36.96 107.365C37.0111 107.573 37.042 107.836 37.0527 108.155C36.9341 108.396 36.936 108.696 37.0582 109.055C37.1627 109.377 37.2861 109.689 37.4286 109.993C37.4833 110.801 37.6282 111.752 37.8633 112.845C38.0806 113.901 38.346 114.911 38.6593 115.876C38.9929 116.784 39.2943 117.476 39.5637 117.952C39.9422 118.562 40.5408 118.999 41.3594 119.263C42.1981 119.471 43.1151 119.551 44.1104 119.501C44.5991 119.457 45.022 119.42 45.379 119.392C45.7183 119.325 46.0208 119.23 46.2865 119.105C46.6079 119.001 46.9875 118.823 47.4252 118.571C47.883 118.264 48.4938 117.838 49.2577 117.295L49.2007 117.322C49.6586 117.014 50.1265 116.679 50.6044 116.316C51.1026 115.897 51.5717 115.515 52.0117 115.17C52.4316 114.88 52.8325 114.6 53.2144 114.328C53.5785 114.018 53.8566 113.772 54.0488 113.589C54.777 112.97 55.3131 112.533 55.6571 112.279C55.9832 111.987 56.2768 111.873 56.5378 111.936C56.7988 111.999 57.0206 112.126 57.2033 112.318C57.3683 112.472 57.4739 112.747 57.5202 113.142C57.5333 113.367 57.3632 113.794 57.0098 114.423C56.6387 115.014 56.1536 115.658 55.5547 116.356C54.9937 117.036 54.4061 117.659 53.7917 118.225C53.1928 118.922 52.4065 119.615 51.4327 120.303C50.4969 120.974 49.5355 121.541 48.5487 122.003C47.5998 122.448 46.7771 122.719 46.0808 122.814Z" fill="#960D00"/>
<path d="M71.7324 105.712C71.2558 106.769 70.5127 107.604 69.5034 108.216C68.5319 108.811 67.4549 109.131 66.2722 109.176C65.0717 109.184 63.9352 108.883 62.8627 108.275C61.8258 107.742 60.9632 106.989 60.275 106.015C59.569 105.004 58.8824 103.589 58.2154 101.772C57.635 100.238 57.4152 98.5355 57.5559 96.6636C57.6789 94.7537 58.0528 92.9345 58.6776 91.206C59.3403 89.4597 60.1532 88.0829 61.1162 87.0755C61.5076 86.4289 61.9019 86.0356 62.2993 85.8955C62.7168 85.6997 63.3609 85.4439 64.2315 85.1282C65.1579 84.8326 65.8833 84.7008 66.4076 84.7327C66.9699 84.7469 67.4729 84.8814 67.9166 85.1363C68.753 85.4387 69.3996 85.83 69.8564 86.3103C70.2954 86.7527 70.6395 87.2396 70.8888 87.771C71.1286 88.6772 71.0399 89.9691 70.6227 91.6465C70.2256 93.2682 69.427 94.8236 68.2268 96.3126C67.5164 96.9699 66.6589 97.511 65.6542 97.9359C64.6495 98.3608 63.7177 98.4968 62.8589 98.344C61.9953 98.3786 61.5475 98.658 61.5156 99.1824C61.4659 99.6687 61.7022 100.716 62.2244 102.323C62.7491 103.836 63.3614 104.846 64.0614 105.351C64.7436 105.818 65.434 105.957 66.1327 105.769C66.963 105.564 67.6048 105.402 68.0579 105.283C68.5312 105.107 69.0014 104.678 69.4687 103.996C69.898 103.331 70.1796 102.945 70.3136 102.835C70.4299 102.688 70.5081 102.559 70.5484 102.447C70.6089 102.28 70.7399 101.918 70.9415 101.36C71.0825 100.97 71.2023 100.682 71.3007 100.497C71.3813 100.274 71.5165 100.118 71.7063 100.029C71.8961 99.94 72.1114 99.9548 72.3522 100.073C72.5753 100.154 72.7805 100.197 72.9679 100.201C73.3475 100.023 73.5302 100.215 73.5161 100.778C73.5399 101.322 73.3995 102.06 73.0948 102.99C72.7724 103.882 72.3182 104.789 71.7324 105.712ZM66.0145 93.6689C66.343 93.2833 66.6549 92.8129 66.9502 92.2576C67.2276 91.6644 67.4203 91.0879 67.5281 90.528C67.6561 89.9123 67.6489 89.4526 67.5065 89.1489C67.2572 88.6176 66.8058 88.2968 66.1521 88.1866C65.4807 88.0384 64.7138 88.3286 63.8516 89.0572C63.4875 89.3669 63.1465 89.8741 62.8288 90.5788C62.4932 91.2455 62.2033 91.9603 61.9591 92.7231C61.7528 93.4681 61.5958 94.1206 61.488 94.6805C61.4181 95.2227 61.4389 95.5139 61.5504 95.5542C61.7533 95.6906 62.1471 95.6911 62.7319 95.5557C63.2989 95.3824 63.8962 95.1255 64.5236 94.7849C65.189 94.4265 65.686 94.0545 66.0145 93.6689Z" fill="#960D00"/>
<path d="M85.4723 101.213C85.0192 101.333 84.4848 101.329 83.8691 101.201C83.2735 101.017 82.6982 100.778 82.1429 100.482C81.6079 100.131 81.1944 99.7928 80.9025 99.4667C80.8669 99.3908 80.7654 99.3226 80.5982 99.2621C80.4689 99.1838 80.4042 99.1447 80.4042 99.1447C80.199 99.1021 79.8727 98.6531 79.4253 97.7979C78.998 96.887 78.5832 95.8544 78.1808 94.7003C77.7784 93.5461 77.5018 92.6108 77.351 91.8944C77.256 91.1981 77.1579 90.2485 77.0568 89.0456C76.9379 87.8048 76.8155 86.7046 76.6896 85.745L76.6781 81.7218L74.1069 82.1636C73.8056 82.2123 73.5067 82.1673 73.2101 82.0285C72.9515 81.872 72.7866 81.7178 72.7153 81.566C72.5729 81.2624 72.5746 80.8217 72.7204 80.2439C72.8484 79.6282 72.9883 79.2848 73.1401 79.2136C73.3477 79.1625 73.6982 79.0213 74.1917 78.7899C74.723 78.5406 75.2266 78.2813 75.7022 78.012C76.1778 77.7426 76.4637 77.5622 76.5597 77.4708C76.676 77.3237 76.7833 77.1576 76.8817 76.9725C76.9623 76.7495 76.9783 76.4873 76.9296 76.1861C76.9235 75.6795 76.9163 75.2198 76.9079 74.807C76.8817 74.3563 76.8947 73.8408 76.9468 73.2607C76.981 72.6427 76.994 72.1273 76.9856 71.7144C77.0151 71.2838 77.0773 70.6759 77.172 69.8905C77.2372 69.5358 77.2946 69.1153 77.3444 68.6289C77.3941 68.1425 77.5274 67.6864 77.7444 67.2605C77.9436 66.7966 78.2229 66.5036 78.5824 66.3813C78.9619 66.2033 79.5521 66.2275 80.3529 66.4539C80.8345 66.691 81.1388 66.8956 81.2658 67.0676C81.3928 67.2396 81.4101 67.6713 81.3177 68.363C81.3167 69.1506 81.2587 69.965 81.1438 70.8061C81.0669 71.6294 81.0089 72.4437 80.9699 73.2492C80.7543 74.3691 80.8629 74.897 81.2959 74.8328C81.7289 74.7687 82.756 74.1943 84.3774 73.1097C85.3892 72.4037 86.213 72.0868 86.8488 72.159C87.4668 72.1933 87.9651 72.5152 88.3437 73.1249C88.8848 73.9824 89.048 74.5773 88.8334 74.9095C88.6188 75.2417 87.7903 75.746 86.3479 76.4225C85.5082 77.0016 84.7746 77.4614 84.1471 77.802C83.5018 78.1046 83.0274 78.3271 82.7237 78.4696C82.2481 78.7389 81.9344 78.9092 81.7825 78.9804C81.6307 79.0516 81.4208 79.1964 81.1527 79.4147C80.8847 79.6331 80.7193 79.8727 80.6564 80.1337C80.6138 80.339 80.5877 80.629 80.5783 81.0039C80.4977 81.2269 80.4569 81.7322 80.4559 82.5199C80.4549 83.3076 80.4046 84.1878 80.3052 85.1606C80.5215 87.0039 80.8137 88.8117 81.1818 90.5839C81.5321 92.3182 81.9405 93.9788 82.407 95.566C82.7003 96.5861 83.0308 97.2414 83.3986 97.532C83.7486 97.7846 84.3399 97.7619 85.1726 97.464C85.6079 97.3061 86.2722 96.9946 87.1653 96.5294C88.0786 96.0084 88.7654 95.5474 89.2255 95.1464C89.5541 94.7608 89.9016 94.3663 90.268 93.9629C90.6167 93.5215 90.9274 93.0979 91.2001 92.6922C91.4527 92.3422 91.7053 91.9922 91.9579 91.6422C92.1927 91.2542 92.3101 91.0603 92.3101 91.0603C92.3575 90.6676 92.5218 90.4748 92.8029 90.4818C93.0841 90.4889 93.4073 90.6846 93.7728 91.0688C93.9864 91.5243 94.1141 92.0433 94.1557 92.6257C94.1973 93.2082 93.7711 94.1258 92.8769 95.3787C91.6673 97.2426 90.3947 98.6266 89.0592 99.5308C87.7438 100.379 86.5482 100.94 85.4723 101.213Z" fill="#960D00"/>
<path d="M105.178 91.8319C104.265 92.3529 103.327 92.7232 102.365 92.9428C101.441 93.1447 100.569 93.1603 99.7479 92.9896C98.9472 92.7632 98.2727 92.3618 97.7245 91.7854C97.2096 91.3786 96.9076 91.0804 96.8186 90.8906C96.7118 90.6628 96.7556 90.4108 96.9501 90.1343C97.2538 89.9919 97.564 89.9622 97.8807 90.0452C98.2176 90.0724 98.6394 90.083 99.1459 90.0769C99.9467 90.3033 100.754 90.2486 101.569 89.9127C102.422 89.559 103.119 89.0701 103.66 88.4461C104.201 87.822 104.402 87.2644 104.264 86.7733C104.193 86.6215 104.012 86.3825 103.72 86.0563C103.428 85.7302 103.108 85.3939 102.761 85.0476C101.059 84.0859 99.6325 83.0186 98.4804 81.8456C97.3485 80.6169 96.5689 79.5471 96.1417 78.6361C95.8212 77.9529 95.6918 77.1338 95.7532 76.1789C95.7969 75.186 96.0547 74.2547 96.5267 73.3851C96.8717 72.3435 97.3282 71.3422 97.8962 70.3812C98.4642 69.4202 99.0678 68.5351 99.707 67.726C100.384 66.899 101.02 66.2304 101.614 65.7202C102.032 65.5244 102.609 65.3232 103.345 65.1166C104.082 64.91 104.619 64.8204 104.956 64.8476C105.444 64.8036 106.039 65.0342 106.739 65.5394C107.421 66.0066 107.913 66.5629 108.216 67.2081C108.341 67.4738 108.425 67.851 108.469 68.3398C108.513 68.8285 108.498 69.4377 108.423 70.1672C108.467 70.6559 108.483 71.1346 108.471 71.6032C108.442 72.0338 108.463 72.325 108.534 72.4768C108.54 72.9834 108.372 73.3167 108.03 73.477C107.709 73.5814 107.306 73.5619 106.822 73.4185C106.358 73.2193 105.925 72.9365 105.521 72.57C105.102 72.0719 104.832 71.6431 104.71 71.2837C104.57 70.8863 104.534 70.4166 104.604 69.8744C104.826 69.2611 104.901 68.8785 104.83 68.7267C104.759 68.5748 104.515 68.5968 104.097 68.7927C103.831 68.9173 103.418 69.3195 102.857 69.9993C102.316 70.6234 101.772 71.3881 101.224 72.2933C100.696 73.1428 100.281 73.9857 99.979 74.8221C99.5783 75.8435 99.3732 76.5417 99.3638 76.9165C99.3923 77.2736 99.5579 77.7748 99.8605 78.42C100.11 78.9514 100.535 79.5622 101.137 80.2525C101.776 80.925 102.291 81.3318 102.681 81.4729C102.681 81.4729 102.939 81.6762 103.454 82.083C103.951 82.4518 104.523 82.8319 105.169 83.2232C107.409 85.1362 108.513 86.7487 108.48 88.0607C108.447 89.3727 107.347 90.6298 105.178 91.8319Z" fill="#960D00"/>
<path d="M13.6225 153.807C13.3955 153.42 13.4799 153.11 13.8756 152.878L21.2005 148.59C21.3983 148.475 21.5765 148.434 21.735 148.469C21.906 148.507 22.0402 148.609 22.1375 148.775C22.2209 148.918 22.258 149.045 22.2489 149.156C22.2478 149.263 22.2077 149.403 22.1288 149.577L18.7636 157.716L24.5927 154.304C24.9805 154.077 25.2856 154.153 25.508 154.533C25.7303 154.913 25.6476 155.216 25.2598 155.443L17.8875 159.759C17.7054 159.865 17.5352 159.901 17.3767 159.867C17.2228 159.84 17.1019 159.751 17.0139 159.601C16.9258 159.45 16.884 159.315 16.8885 159.196C16.8929 159.076 16.9323 158.926 17.0066 158.744L20.3836 150.599L14.5427 154.018C14.147 154.25 13.8403 154.179 13.6225 153.807Z" fill="#960D00"/>
<path d="M21.5457 166.03C21.2641 165.657 21.0861 165.269 21.0116 164.865C20.9372 164.462 20.9582 164.078 21.0746 163.715C21.1966 163.359 21.415 163.062 21.7298 162.825C22.1252 162.526 22.511 162.391 22.8871 162.417C23.2687 162.451 23.6846 162.66 24.135 163.044C24.5909 163.435 25.1171 164.026 25.7134 164.817L25.995 165.19L26.2806 164.975C26.6979 164.66 26.9319 164.346 26.9824 164.032C27.033 163.719 26.9064 163.36 26.6027 162.958C26.426 162.723 26.2117 162.5 25.9599 162.288C25.7135 162.083 25.4187 161.898 25.0752 161.732C24.8861 161.633 24.7785 161.513 24.7524 161.372C24.7319 161.238 24.7627 161.112 24.8449 160.992C24.9272 160.873 25.0434 160.791 25.1937 160.747C25.344 160.702 25.5009 160.727 25.6644 160.822C26.0538 161.034 26.4001 161.273 26.7035 161.538C27.0141 161.797 27.2744 162.066 27.4842 162.344C28.0364 163.077 28.2693 163.751 28.1829 164.368C28.1038 164.979 27.6944 165.563 26.9549 166.121L24.1322 168.249C23.7588 168.531 23.4423 168.5 23.1828 168.155C22.9178 167.804 22.9719 167.487 23.3454 167.206L23.7518 166.899C23.3448 167 22.9486 166.977 22.563 166.831C22.1775 166.685 21.8384 166.418 21.5457 166.03ZM22.5022 165.654C22.8003 166.049 23.1879 166.274 23.665 166.327C24.142 166.381 24.5928 166.248 25.0175 165.928L25.3141 165.704L25.0407 165.342C24.6376 164.807 24.2945 164.405 24.0113 164.136C23.7337 163.875 23.4829 163.725 23.2591 163.687C23.048 163.651 22.8364 163.713 22.624 163.873C22.3458 164.083 22.1906 164.349 22.1584 164.672C22.1336 164.99 22.2482 165.317 22.5022 165.654Z" fill="#960D00"/>
<path d="M34.8558 180.591C34.4846 180.249 34.2284 179.864 34.0873 179.435C33.9523 178.999 33.941 178.571 34.0533 178.151L33.6994 178.536C33.3827 178.88 33.059 178.9 32.7283 178.596C32.3909 178.285 32.3805 177.958 32.6972 177.614L38.4442 171.368C38.7609 171.024 39.088 171.007 39.4254 171.318C39.7696 171.634 39.7834 171.965 39.4667 172.309L37.1194 174.86C37.5163 174.726 37.9309 174.709 38.3634 174.808C38.8026 174.913 39.2045 175.133 39.5689 175.469C40.0075 175.872 40.2926 176.328 40.424 176.835C40.5622 177.348 40.5421 177.878 40.3636 178.424C40.1981 178.97 39.8731 179.506 39.3888 180.032C38.9044 180.559 38.3942 180.93 37.858 181.147C37.3286 181.371 36.8023 181.435 36.2791 181.34C35.7689 181.244 35.2944 180.994 34.8558 180.591ZM35.3292 179.568C35.7544 179.96 36.2315 180.118 36.7607 180.044C37.2966 179.977 37.8284 179.656 38.3562 179.082C38.884 178.509 39.1563 177.955 39.1731 177.422C39.2028 176.889 39.0051 176.427 38.58 176.035C38.1548 175.644 37.6743 175.483 37.1384 175.55C36.6155 175.617 36.0901 175.938 35.5623 176.511C35.0345 177.085 34.7557 177.639 34.726 178.172C34.703 178.712 34.9041 179.177 35.3292 179.568Z" fill="#960D00"/>
<path d="M42.9348 187.173C41.6244 186.215 41.5024 185.007 42.5687 183.548L44.6471 180.706C44.9232 180.328 45.2463 180.275 45.6164 180.545C45.994 180.821 46.0447 181.148 45.7687 181.526L43.6821 184.38C43.3628 184.816 43.2162 185.203 43.2423 185.541C43.2684 185.878 43.474 186.187 43.8589 186.469C44.2809 186.777 44.7243 186.885 45.1891 186.794C45.6613 186.707 46.0706 186.427 46.417 185.953L48.3006 183.377C48.5766 182.999 48.9034 182.948 49.281 183.225C49.6512 183.495 49.6982 183.819 49.4222 184.197L46.1746 188.639C45.8986 189.016 45.5792 189.072 45.2164 188.807C44.8536 188.542 44.8103 188.221 45.0863 187.843L45.3624 187.465C44.952 187.654 44.5391 187.721 44.1239 187.668C43.7087 187.614 43.3124 187.449 42.9348 187.173Z" fill="#960D00"/>
<path d="M52.6191 193.488C52.2703 193.285 51.9326 193.036 51.6061 192.74C51.2797 192.444 51.0212 192.113 50.8306 191.747C50.7419 191.59 50.7163 191.442 50.7538 191.305C50.7912 191.168 50.8637 191.061 50.9712 190.986C51.0787 190.91 51.1955 190.883 51.3217 190.903C51.4603 190.92 51.5763 191.004 51.6695 191.153C51.8819 191.5 52.11 191.791 52.3538 192.029C52.5977 192.266 52.8584 192.465 53.1359 192.627C53.556 192.871 53.9169 192.98 54.2186 192.954C54.5202 192.928 54.7448 192.788 54.8923 192.535C55.0122 192.328 55.0331 192.128 54.955 191.934C54.8814 191.732 54.7204 191.517 54.4719 191.287L53.4737 190.404C52.5948 189.617 52.3951 188.812 52.8746 187.987C53.1928 187.44 53.6644 187.131 54.2894 187.059C54.9145 186.988 55.5798 187.158 56.2853 187.568C56.9988 187.983 57.5117 188.515 57.8241 189.163C57.9048 189.316 57.9225 189.459 57.8771 189.592C57.8363 189.717 57.7582 189.814 57.6428 189.885C57.532 189.948 57.4095 189.967 57.2755 189.942C57.1494 189.922 57.0357 189.835 56.9345 189.68C56.7797 189.399 56.6018 189.158 56.4009 188.956C56.2046 188.746 55.9954 188.577 55.7735 188.448C55.3613 188.208 55.002 188.105 54.6958 188.139C54.3941 188.165 54.1672 188.309 54.015 188.571C53.7845 188.967 53.8985 189.373 54.3572 189.788L55.3554 190.671C55.8108 191.074 56.0977 191.474 56.2164 191.872C56.343 192.275 56.2841 192.686 56.0397 193.106C55.7169 193.661 55.2453 193.971 54.6249 194.034C54.0091 194.09 53.3404 193.908 52.6191 193.488Z" fill="#960D00"/>
<path d="M62.0415 198.288C61.4164 198.001 60.934 197.623 60.5942 197.154C60.2666 196.681 60.0868 196.149 60.0549 195.56C60.0267 194.961 60.1619 194.337 60.4604 193.687C60.9042 192.72 61.5293 192.084 62.3358 191.778C63.1422 191.472 64.0122 191.534 64.9456 191.962C65.2373 192.096 65.5205 192.282 65.7951 192.519C66.0819 192.751 66.3169 193.031 66.5001 193.357C66.5952 193.501 66.6205 193.644 66.5759 193.785C66.5435 193.922 66.4672 194.033 66.347 194.119C66.2389 194.201 66.1169 194.236 65.9811 194.224C65.8491 194.203 65.7273 194.117 65.6155 193.965C65.4805 193.731 65.3222 193.538 65.1407 193.384C64.9629 193.221 64.7782 193.096 64.5865 193.008C63.9947 192.737 63.4503 192.714 62.953 192.939C62.468 193.161 62.0686 193.613 61.7548 194.297C61.4411 194.98 61.3526 195.59 61.4895 196.127C61.6385 196.66 62.0089 197.062 62.6007 197.334C62.7924 197.422 63.0016 197.483 63.2284 197.516C63.4636 197.553 63.7179 197.549 63.9913 197.503C64.1795 197.488 64.3183 197.527 64.4075 197.618C64.5051 197.714 64.5521 197.831 64.5485 197.971C64.5571 198.106 64.5183 198.234 64.4321 198.356C64.358 198.474 64.2352 198.543 64.0636 198.565C63.7088 198.635 63.354 198.638 62.999 198.576C62.6524 198.518 62.3332 198.422 62.0415 198.288Z" fill="#960D00"/>
<path d="M70.579 201.644C70.1365 201.492 69.7715 201.27 69.4838 200.978C69.1962 200.685 68.9988 200.356 68.8916 199.99C68.793 199.626 68.8076 199.258 68.9354 198.885C69.0958 198.417 69.3392 198.088 69.6656 197.899C70.0006 197.714 70.4622 197.653 71.0504 197.719C71.6473 197.788 72.4143 197.983 73.3513 198.304L73.7938 198.455L73.9096 198.117C74.079 197.622 74.0967 197.231 73.9627 196.943C73.8288 196.654 73.5232 196.429 73.046 196.265C72.7684 196.17 72.4658 196.105 72.1384 196.071C71.8196 196.039 71.4715 196.051 71.0941 196.106C70.8822 196.13 70.7259 196.091 70.6252 195.989C70.5332 195.889 70.4878 195.767 70.489 195.622C70.4902 195.477 70.5406 195.344 70.6401 195.223C70.7397 195.102 70.8838 195.035 71.0725 195.022C71.5136 194.979 71.9341 194.983 72.3339 195.033C72.7367 195.074 73.103 195.15 73.4327 195.263C74.3003 195.56 74.871 195.989 75.1449 196.548C75.4217 197.098 75.4101 197.811 75.11 198.688L73.9647 202.032C73.8131 202.475 73.5335 202.626 73.1257 202.487C72.7092 202.344 72.5768 202.051 72.7283 201.609L72.8932 201.127C72.6122 201.438 72.2713 201.642 71.8703 201.737C71.4693 201.832 71.0388 201.801 70.579 201.644ZM71.1602 200.796C71.6287 200.956 72.0756 200.925 72.5008 200.702C72.926 200.48 73.2248 200.117 73.3971 199.613L73.5175 199.262L73.088 199.115C72.4546 198.898 71.9453 198.758 71.5602 198.693C71.1836 198.632 70.892 198.649 70.6853 198.743C70.4903 198.831 70.3497 199.001 70.2636 199.253C70.1507 199.582 70.1713 199.89 70.3256 200.176C70.4829 200.452 70.7611 200.659 71.1602 200.796Z" fill="#960D00"/>
<path d="M88.7279 206.091C88.1475 206.004 87.6555 205.791 87.252 205.452C86.8589 205.106 86.5787 204.655 86.4115 204.102C86.2443 203.548 86.2138 202.917 86.3201 202.21C86.4263 201.503 86.64 200.913 86.9612 200.442C87.2837 199.962 87.6837 199.614 88.1612 199.398C88.6388 199.183 89.1723 199.119 89.7618 199.208C90.2606 199.283 90.6886 199.458 91.0459 199.734C91.4032 200.011 91.6491 200.349 91.7837 200.749L92.3007 197.308C92.3701 196.845 92.6316 196.648 93.0851 196.716C93.5476 196.785 93.7441 197.051 93.6746 197.514L92.4139 205.907C92.3445 206.37 92.083 206.567 91.6296 206.499C91.1761 206.431 90.9841 206.166 91.0536 205.703L91.1312 205.186C90.8745 205.537 90.5341 205.797 90.1101 205.965C89.6874 206.124 89.2267 206.166 88.7279 206.091ZM89.241 205.083C89.8033 205.168 90.2874 205.032 90.6933 204.675C91.0992 204.319 91.3601 203.755 91.4758 202.984C91.5916 202.214 91.5072 201.603 91.2225 201.152C90.9392 200.692 90.5163 200.42 89.9541 200.335C89.3827 200.25 88.8941 200.385 88.4882 200.741C88.0836 201.088 87.8234 201.648 87.7076 202.418C87.5918 203.189 87.6756 203.805 87.9589 204.265C88.2423 204.724 88.6696 204.997 89.241 205.083Z" fill="#960D00"/>
<path d="M100.664 207.191C99.9863 207.167 99.405 207.003 98.9205 206.701C98.436 206.399 98.0656 205.986 97.8095 205.463C97.5628 204.93 97.4525 204.307 97.4787 203.592C97.5048 202.877 97.6602 202.268 97.9447 201.765C98.2388 201.252 98.6385 200.863 99.1438 200.597C99.649 200.331 100.241 200.211 100.919 200.235C101.579 200.26 102.151 200.423 102.635 200.725C103.12 201.027 103.49 201.444 103.746 201.977C104.002 202.5 104.117 203.119 104.091 203.834C104.065 204.549 103.905 205.162 103.611 205.675C103.317 206.178 102.917 206.563 102.412 206.829C101.907 207.095 101.324 207.216 100.664 207.191ZM100.704 206.119C101.272 206.14 101.738 205.95 102.101 205.551C102.464 205.151 102.66 204.562 102.689 203.783C102.717 203.004 102.565 202.406 102.231 201.99C101.898 201.565 101.447 201.342 100.879 201.321C100.302 201.3 99.8315 201.49 99.4682 201.889C99.1051 202.28 98.9094 202.864 98.8809 203.643C98.8524 204.422 99.0047 205.025 99.3379 205.45C99.6711 205.875 100.126 206.098 100.704 206.119Z" fill="#960D00"/>
<path d="M119.136 206.163C118.736 206.219 118.317 206.232 117.877 206.202C117.437 206.171 117.03 206.071 116.654 205.902C116.487 205.833 116.375 205.733 116.32 205.602C116.264 205.471 116.255 205.342 116.293 205.217C116.331 205.091 116.406 204.997 116.517 204.935C116.637 204.862 116.779 204.856 116.945 204.916C117.326 205.057 117.686 205.145 118.025 205.181C118.363 205.216 118.691 205.211 119.009 205.167C119.49 205.099 119.841 204.961 120.062 204.754C120.283 204.547 120.373 204.298 120.332 204.007C120.298 203.771 120.191 203.601 120.01 203.497C119.827 203.384 119.567 203.314 119.23 203.288L117.899 203.212C116.722 203.137 116.066 202.628 115.933 201.683C115.845 201.057 116.024 200.522 116.471 200.079C116.918 199.636 117.545 199.358 118.353 199.244C119.171 199.128 119.903 199.229 120.549 199.545C120.707 199.615 120.81 199.717 120.856 199.849C120.901 199.972 120.9 200.097 120.854 200.224C120.805 200.342 120.721 200.433 120.6 200.496C120.489 200.558 120.345 200.56 120.17 200.501C119.875 200.376 119.586 200.297 119.303 200.263C119.019 200.219 118.75 200.216 118.496 200.252C118.023 200.318 117.678 200.46 117.458 200.676C117.237 200.883 117.148 201.137 117.19 201.436C117.254 201.89 117.595 202.139 118.212 202.181L119.543 202.257C120.15 202.292 120.623 202.429 120.962 202.668C121.311 202.906 121.519 203.266 121.587 203.747C121.677 204.382 121.498 204.917 121.049 205.351C120.6 205.776 119.962 206.046 119.136 206.163Z" fill="#960D00"/>
<path d="M129.708 204.052C128.639 204.314 127.724 204.222 126.963 203.776C126.2 203.321 125.69 202.573 125.435 201.531C125.271 200.863 125.26 200.242 125.402 199.669C125.552 199.085 125.832 198.591 126.243 198.188C126.654 197.785 127.171 197.507 127.795 197.354C128.694 197.133 129.473 197.249 130.132 197.701C130.788 198.144 131.24 198.869 131.487 199.875C131.561 200.178 131.421 200.373 131.064 200.461L126.816 201.504C127.246 202.833 128.129 203.334 129.465 203.006C129.732 202.941 130.005 202.841 130.284 202.706C130.56 202.563 130.815 202.368 131.047 202.122C131.208 201.969 131.36 201.894 131.502 201.897C131.651 201.889 131.772 201.94 131.865 202.049C131.956 202.149 131.997 202.281 131.99 202.443C131.989 202.594 131.918 202.744 131.775 202.893C131.522 203.172 131.204 203.415 130.821 203.623C130.444 203.819 130.073 203.962 129.708 204.052ZM128.081 198.289C127.52 198.427 127.117 198.71 126.873 199.138C126.628 199.567 126.542 200.079 126.613 200.675L130.26 199.78C130.084 199.181 129.809 198.753 129.434 198.495C129.057 198.229 128.606 198.16 128.081 198.289Z" fill="#960D00"/>
<path d="M139.321 201.093C137.796 201.648 136.724 201.077 136.106 199.38L134.901 196.071C134.741 195.631 134.876 195.333 135.307 195.176C135.747 195.016 136.046 195.156 136.206 195.595L137.416 198.917C137.601 199.426 137.841 199.763 138.136 199.929C138.43 200.095 138.802 200.096 139.25 199.933C139.741 199.754 140.078 199.446 140.26 199.009C140.451 198.568 140.446 198.072 140.245 197.521L139.153 194.522C138.993 194.083 139.133 193.783 139.573 193.623C140.003 193.466 140.299 193.607 140.459 194.047L142.342 199.217C142.502 199.657 142.371 199.953 141.948 200.107C141.526 200.261 141.235 200.118 141.075 199.678L140.915 199.239C140.843 199.685 140.669 200.065 140.394 200.38C140.118 200.695 139.76 200.933 139.321 201.093Z" fill="#960D00"/>
<path d="M156.376 195.951C155.981 196.184 155.665 196.1 155.427 195.697L151.366 188.829C151.127 188.427 151.202 188.111 151.589 187.882C151.983 187.649 152.3 187.734 152.538 188.136L152.804 188.586C152.781 188.152 152.884 187.74 153.111 187.349C153.334 186.951 153.662 186.624 154.097 186.367C154.61 186.064 155.128 185.922 155.652 185.943C156.183 185.959 156.685 186.131 157.156 186.46C157.631 186.776 158.05 187.242 158.414 187.857C158.778 188.473 158.987 189.069 159.04 189.645C159.1 190.216 159.01 190.739 158.768 191.212C158.529 191.673 158.153 192.055 157.64 192.359C157.214 192.611 156.777 192.746 156.33 192.765C155.887 192.772 155.482 192.665 155.117 192.444L156.623 194.99C156.861 195.392 156.779 195.713 156.376 195.951ZM156.798 191.61C157.295 191.316 157.585 190.905 157.667 190.377C157.757 189.844 157.603 189.243 157.206 188.572C156.809 187.901 156.358 187.48 155.853 187.31C155.351 187.128 154.851 187.184 154.354 187.478C153.857 187.772 153.563 188.185 153.473 188.718C153.386 189.238 153.541 189.833 153.938 190.504C154.335 191.175 154.784 191.602 155.287 191.784C155.797 191.962 156.3 191.904 156.798 191.61Z" fill="#960D00"/>
<path d="M164.865 187.533C164.489 187.811 164.162 187.761 163.884 187.384L160.623 182.953C160.345 182.576 160.388 182.255 160.75 181.988C161.111 181.722 161.431 181.777 161.708 182.154L162.059 182.63C161.962 182.189 161.996 181.771 162.161 181.376C162.333 180.976 162.623 180.604 163.029 180.259C163.286 180.036 163.543 180.075 163.799 180.376C164.068 180.679 164.039 180.973 163.714 181.258L163.52 181.435C162.608 182.254 162.489 183.122 163.163 184.038L165.014 186.553C165.292 186.929 165.242 187.256 164.865 187.533Z" fill="#960D00"/>
<path d="M173.721 180.367C173.217 180.822 172.687 181.11 172.129 181.232C171.571 181.353 171.017 181.315 170.469 181.119C169.921 180.909 169.407 180.539 168.928 180.008C168.448 179.478 168.135 178.933 167.987 178.374C167.841 177.801 167.856 177.244 168.033 176.701C168.21 176.158 168.55 175.659 169.053 175.204C169.543 174.761 170.067 174.479 170.625 174.358C171.183 174.236 171.739 174.277 172.294 174.481C172.842 174.677 173.356 175.041 173.836 175.571C174.316 176.102 174.629 176.654 174.775 177.226C174.916 177.791 174.897 178.346 174.721 178.889C174.544 179.432 174.211 179.924 173.721 180.367ZM173.001 179.571C173.423 179.19 173.625 178.729 173.607 178.19C173.588 177.65 173.318 177.091 172.795 176.512C172.273 175.934 171.747 175.612 171.217 175.546C170.682 175.474 170.204 175.628 169.782 176.01C169.353 176.397 169.148 176.861 169.166 177.401C169.178 177.934 169.446 178.489 169.968 179.068C170.491 179.646 171.02 179.971 171.555 180.044C172.091 180.116 172.573 179.959 173.001 179.571ZM168.888 174.221C168.919 174.392 168.873 174.526 168.751 174.623C168.623 174.714 168.482 174.749 168.327 174.729C168.179 174.702 168.08 174.599 168.031 174.421L167.409 172.072C167.354 171.875 167.372 171.716 167.462 171.598C167.56 171.473 167.687 171.395 167.844 171.364C168.002 171.32 168.151 171.334 168.29 171.406C168.423 171.471 168.501 171.598 168.524 171.787L168.888 174.221Z" fill="#960D00"/>
<path d="M180.052 174.062C179.887 174.247 179.693 174.313 179.469 174.262C179.251 174.203 179.114 174.013 179.056 173.691L178.517 170.449L175.478 170.304C175.153 170.297 174.951 170.185 174.874 169.969C174.796 169.752 174.837 169.555 174.995 169.377C175.111 169.247 175.23 169.162 175.351 169.123C175.471 169.07 175.616 169.052 175.786 169.068L178.338 169.222L177.899 166.694C177.863 166.528 177.861 166.385 177.893 166.266C177.919 166.141 177.989 166.014 178.105 165.883C178.264 165.705 178.455 165.642 178.679 165.694C178.903 165.746 179.04 165.936 179.092 166.265L179.588 169.266L182.861 169.417C183.18 169.431 183.382 169.549 183.466 169.771C183.55 169.981 183.509 170.178 183.345 170.363C183.143 170.589 182.88 170.692 182.554 170.672L179.778 170.522L180.258 173.251C180.287 173.412 180.289 173.555 180.264 173.679C180.238 173.804 180.168 173.932 180.052 174.062Z" fill="#960D00"/>
<path d="M180.526 160.486C180.362 160.707 180.178 160.839 179.975 160.882C179.777 160.918 179.579 160.862 179.38 160.714C178.96 160.403 178.923 160.015 179.267 159.551C179.612 159.087 179.994 159.011 180.414 159.323C180.833 159.635 180.871 160.022 180.526 160.486ZM187.185 165.433C186.912 165.801 186.572 165.834 186.168 165.534L181.861 162.334C181.463 162.039 181.401 161.707 181.675 161.339C181.954 160.964 182.292 160.924 182.689 161.219L186.996 164.418C187.401 164.719 187.464 165.057 187.185 165.433Z" fill="#960D00"/>
<path d="M191.563 159.184C191.331 159.58 191.014 159.659 190.61 159.423L185.864 156.639C185.46 156.402 185.372 156.09 185.6 155.703C185.827 155.315 186.142 155.24 186.546 155.476L186.961 155.72C186.731 155.351 186.615 154.959 186.614 154.544C186.613 154.128 186.733 153.715 186.975 153.304C187.494 152.418 188.218 152.071 189.147 152.265C188.889 151.87 188.758 151.442 188.751 150.981C188.745 150.52 188.87 150.072 189.125 149.637C189.886 148.34 191.041 148.146 192.592 149.055L195.642 150.843C196.045 151.08 196.128 151.4 195.892 151.803C195.66 152.199 195.342 152.278 194.939 152.042L191.948 150.288C191.458 150.001 191.047 149.876 190.716 149.916C190.389 149.948 190.112 150.157 189.884 150.545C189.629 150.98 189.582 151.414 189.742 151.849C189.894 152.278 190.231 152.646 190.753 152.952L193.47 154.546C193.874 154.782 193.96 155.098 193.728 155.494C193.491 155.897 193.171 155.981 192.768 155.744L189.777 153.99C189.287 153.703 188.878 153.575 188.551 153.606C188.224 153.638 187.947 153.848 187.72 154.235C187.465 154.67 187.417 155.105 187.577 155.539C187.734 155.96 188.074 156.324 188.596 156.631L191.313 158.224C191.717 158.461 191.8 158.781 191.563 159.184Z" fill="#960D00"/>
<path d="M199.454 144.025C199.188 144.65 198.828 145.134 198.373 145.479C197.917 145.823 197.4 146.022 196.819 146.074C196.234 146.115 195.613 145.995 194.954 145.715C194.296 145.435 193.782 145.073 193.414 144.627C193.04 144.169 192.819 143.657 192.751 143.09C192.684 142.523 192.782 141.927 193.048 141.303C193.306 140.695 193.663 140.219 194.118 139.874C194.573 139.53 195.095 139.333 195.684 139.284C196.264 139.232 196.884 139.346 197.542 139.625C198.2 139.905 198.716 140.274 199.09 140.731C199.455 141.186 199.671 141.696 199.739 142.263C199.807 142.83 199.712 143.417 199.454 144.025ZM198.466 143.605C198.689 143.082 198.678 142.579 198.435 142.097C198.191 141.615 197.711 141.222 196.993 140.917C196.276 140.612 195.663 140.541 195.156 140.704C194.639 140.863 194.27 141.204 194.048 141.728C193.822 142.26 193.831 142.766 194.074 143.249C194.309 143.727 194.786 144.119 195.503 144.424C196.22 144.729 196.837 144.801 197.353 144.642C197.869 144.483 198.24 144.137 198.466 143.605Z" fill="#960D00"/>
<path d="M207.129 128.53C207.03 128.978 206.752 129.151 206.296 129.051L198.504 127.333C198.047 127.233 197.867 126.963 197.964 126.524C198.063 126.076 198.34 125.903 198.797 126.003L199.308 126.116C198.975 125.836 198.744 125.48 198.614 125.047C198.475 124.613 198.459 124.149 198.568 123.657C198.696 123.075 198.947 122.599 199.319 122.23C199.693 121.853 200.161 121.604 200.723 121.484C201.278 121.352 201.905 121.364 202.603 121.518C203.302 121.672 203.88 121.926 204.337 122.28C204.796 122.625 205.116 123.048 205.297 123.548C205.471 124.037 205.494 124.573 205.365 125.155C205.259 125.639 205.06 126.05 204.769 126.39C204.471 126.719 204.117 126.941 203.706 127.057L206.595 127.694C207.051 127.795 207.229 128.073 207.129 128.53ZM204.243 125.26C204.368 124.696 204.265 124.203 203.935 123.783C203.607 123.354 203.062 123.056 202.301 122.888C201.54 122.72 200.925 122.763 200.456 123.016C199.98 123.259 199.679 123.662 199.555 124.226C199.431 124.791 199.533 125.287 199.861 125.717C200.182 126.135 200.723 126.428 201.484 126.596C202.245 126.763 202.864 126.726 203.34 126.483C203.818 126.232 204.119 125.824 204.243 125.26Z" fill="#960D00"/>
<path d="M206.769 116.581C206.714 117.045 206.455 117.251 205.99 117.196L200.525 116.557C200.061 116.502 199.854 116.252 199.907 115.806C199.959 115.359 200.217 115.163 200.682 115.218L201.269 115.286C200.881 115.056 200.599 114.746 200.423 114.356C200.248 113.957 200.173 113.491 200.198 112.959C200.21 112.619 200.414 112.458 200.809 112.476C201.214 112.487 201.409 112.708 201.396 113.141L201.393 113.403C201.369 114.629 201.922 115.307 203.052 115.44L206.153 115.803C206.618 115.857 206.823 116.116 206.769 116.581Z" fill="#960D00"/>
<path d="M207.559 106.001C207.55 106.469 207.45 106.884 207.259 107.247C207.068 107.611 206.815 107.899 206.499 108.113C206.183 108.317 205.828 108.416 205.433 108.408C204.938 108.398 204.551 108.266 204.272 108.013C203.993 107.751 203.795 107.329 203.678 106.749C203.561 106.16 203.513 105.37 203.533 104.38L203.542 103.912L203.185 103.905C202.662 103.894 202.284 103.997 202.05 104.212C201.817 104.428 201.695 104.788 201.685 105.292C201.679 105.585 201.709 105.893 201.776 106.216C201.843 106.529 201.961 106.857 202.128 107.2C202.216 107.394 202.226 107.555 202.16 107.682C202.093 107.8 201.99 107.88 201.852 107.923C201.714 107.966 201.572 107.959 201.426 107.901C201.28 107.843 201.173 107.726 201.103 107.551C200.927 107.143 200.803 106.742 200.728 106.346C200.644 105.95 200.606 105.578 200.613 105.229C200.631 104.312 200.865 103.638 201.314 103.207C201.753 102.775 202.436 102.569 203.362 102.588L206.897 102.658C207.365 102.668 207.594 102.888 207.586 103.319C207.577 103.759 207.338 103.974 206.871 103.965L206.362 103.955C206.744 104.128 207.041 104.39 207.254 104.743C207.467 105.096 207.569 105.515 207.559 106.001ZM206.575 105.706C206.584 105.211 206.419 104.795 206.077 104.458C205.735 104.121 205.298 103.947 204.766 103.937L204.395 103.929L204.386 104.383C204.372 105.052 204.394 105.58 204.45 105.967C204.507 106.344 204.612 106.616 204.764 106.785C204.908 106.943 205.113 107.026 205.378 107.031C205.727 107.038 206.014 106.924 206.238 106.69C206.454 106.456 206.566 106.128 206.575 105.706Z" fill="#960D00"/>
<path d="M207.171 94.5209C207.236 95.3622 207.069 96.005 206.671 96.4494C206.272 96.8937 205.666 97.1471 204.852 97.2094L201.615 97.4571L201.678 98.2801C201.708 98.6642 201.544 98.8698 201.188 98.8971C200.831 98.9244 200.638 98.746 200.609 98.362L200.546 97.539L199.133 97.6472C198.666 97.6829 198.415 97.4675 198.38 97.0012C198.345 96.544 198.56 96.2975 199.027 96.2618L200.439 96.1537L200.317 94.5489C200.287 94.1649 200.451 93.9592 200.807 93.9319C201.164 93.9046 201.357 94.083 201.387 94.467L201.509 96.0718L204.637 95.8324C205.121 95.7953 205.479 95.6668 205.711 95.4467C205.942 95.2175 206.039 94.8697 206.003 94.4034C205.991 94.2388 205.966 94.0981 205.93 93.9813C205.884 93.8652 205.853 93.7618 205.837 93.6711C205.829 93.5705 205.86 93.4854 205.928 93.4158C205.987 93.3469 206.113 93.3051 206.305 93.2904C206.451 93.2792 206.586 93.2965 206.709 93.3422C206.822 93.3796 206.902 93.4608 206.948 93.586C207.002 93.6923 207.05 93.8403 207.092 94.0303C207.134 94.2111 207.16 94.3746 207.171 94.5209Z" fill="#960D00"/>
<path d="M205.92 85.369C206.039 86.0371 206.003 86.6399 205.81 87.1774C205.617 87.7149 205.292 88.1642 204.835 88.5254C204.367 88.8792 203.781 89.119 203.077 89.2449C202.373 89.3707 201.745 89.3479 201.193 89.1765C200.63 88.9976 200.165 88.6894 199.798 88.252C199.431 87.8145 199.187 87.2617 199.068 86.5937C198.952 85.9437 198.99 85.3499 199.183 84.8124C199.376 84.2749 199.705 83.8247 200.171 83.4619C200.628 83.1007 201.209 82.8572 201.913 82.7313C202.617 82.6055 203.251 82.632 203.814 82.8109C204.368 82.9913 204.828 83.3003 205.195 83.7378C205.562 84.1753 205.804 84.719 205.92 85.369ZM204.864 85.5578C204.764 84.9981 204.48 84.583 204.012 84.3125C203.545 84.0421 202.927 83.9754 202.16 84.1126C201.393 84.2497 200.841 84.5253 200.505 84.9394C200.16 85.355 200.038 85.8427 200.138 86.4025C200.239 86.9712 200.524 87.3908 200.992 87.6612C201.45 87.9333 202.063 88.0008 202.83 87.8636C203.598 87.7265 204.154 87.4501 204.499 87.0344C204.844 86.6187 204.965 86.1265 204.864 85.5578Z" fill="#960D00"/>
<path d="M200.434 69.2208C200.587 69.2901 200.684 69.3907 200.724 69.5226C200.764 69.6545 200.758 69.7796 200.704 69.8978C200.651 70.0161 200.566 70.1022 200.449 70.1562C200.324 70.2134 200.178 70.2048 200.013 70.1301L197.18 68.8633L195.884 71.7362C195.81 71.9017 195.707 72.0045 195.575 72.0446C195.443 72.0847 195.318 72.0781 195.199 72.0248C195.078 71.9629 194.989 71.8692 194.931 71.7438C194.874 71.6184 194.883 71.4729 194.957 71.3074L196.245 68.4522L193.39 67.1645C193.224 67.0899 193.122 66.9866 193.081 66.8547C193.041 66.7228 193.052 66.5961 193.114 66.4746C193.164 66.3478 193.252 66.2558 193.377 66.1985C193.503 66.1413 193.644 66.1516 193.801 66.2295L196.674 67.5252L197.958 64.7006C198.033 64.5351 198.136 64.4323 198.268 64.3922C198.392 64.3553 198.512 64.3636 198.631 64.4169C198.749 64.4702 198.837 64.5596 198.894 64.685C198.948 64.8018 198.942 64.9414 198.876 65.1036L197.596 67.9411L200.434 69.2208Z" fill="#960D00"/>
<path d="M193.436 51.6185C193.673 52.0005 193.596 52.3123 193.207 52.5538L185.991 57.0233C185.796 57.1441 185.619 57.1891 185.46 57.1583C185.288 57.1245 185.151 57.0258 185.05 56.8621C184.963 56.7218 184.923 56.5957 184.929 56.4839C184.927 56.377 184.964 56.2357 185.039 56.0601L188.199 47.8399L182.457 51.3967C182.075 51.6334 181.768 51.5646 181.537 51.1903C181.305 50.8161 181.38 50.5107 181.762 50.2741L189.024 45.7755C189.203 45.6644 189.373 45.6243 189.532 45.655C189.686 45.678 189.81 45.7636 189.901 45.9117C189.993 46.0598 190.038 46.1937 190.037 46.3132C190.035 46.4328 190 46.5843 189.93 46.7678L186.758 54.9952L192.511 51.4311C192.901 51.1896 193.209 51.2521 193.436 51.6185Z" fill="#960D00"/>
<path d="M185.21 39.5984C185.501 39.9647 185.688 40.3485 185.773 40.7498C185.857 41.1512 185.846 41.535 185.739 41.9012C185.626 42.2603 185.415 42.5625 185.106 42.8077C184.718 43.1157 184.336 43.2611 183.959 43.244C183.577 43.2197 183.156 43.0212 182.696 42.6486C182.231 42.2688 181.69 41.6911 181.074 40.9155L180.783 40.5492L180.503 40.7716C180.094 41.0967 179.868 41.4167 179.825 41.7317C179.782 42.0466 179.918 42.4016 180.231 42.7966C180.414 43.0264 180.634 43.2442 180.891 43.4499C181.142 43.6485 181.442 43.8264 181.789 43.9838C181.981 44.0776 182.091 44.1947 182.121 44.3352C182.145 44.4685 182.117 44.5958 182.038 44.7173C181.958 44.8387 181.844 44.9236 181.695 44.9717C181.546 45.0199 181.389 44.9985 181.223 44.9077C180.828 44.7058 180.476 44.4761 180.166 44.2186C179.849 43.9668 179.582 43.7044 179.365 43.4315C178.795 42.7133 178.545 42.045 178.616 41.4265C178.68 40.8138 179.075 40.2194 179.8 39.6434L182.569 37.4448C182.935 37.154 183.252 37.1773 183.52 37.5148C183.794 37.8596 183.748 38.1774 183.381 38.4682L182.983 38.7847C183.387 38.6745 183.784 38.6874 184.173 38.8234C184.562 38.9594 184.908 39.2178 185.21 39.5984ZM184.263 39.9989C183.955 39.6111 183.562 39.3963 183.084 39.3544C182.606 39.3126 182.158 39.4571 181.742 39.7879L181.451 40.0188L181.733 40.3743C182.15 40.8986 182.503 41.2916 182.792 41.5533C183.077 41.8078 183.331 41.9513 183.556 41.9836C183.768 42.0144 183.978 41.9472 184.186 41.7818C184.459 41.565 184.607 41.2949 184.631 40.9713C184.648 40.6534 184.526 40.3293 184.263 39.9989Z" fill="#960D00"/>
<path d="M171.54 25.3749C171.92 25.7071 172.186 26.0858 172.337 26.5111C172.483 26.9433 172.505 27.3708 172.403 27.7935L172.748 27.4001C173.056 27.0481 173.379 27.0201 173.717 27.316C174.062 27.618 174.081 27.9449 173.773 28.2969L168.184 34.6845C167.876 35.0365 167.549 35.0615 167.204 34.7596C166.852 34.4516 166.83 34.1216 167.138 33.7696L169.421 31.1607C169.027 31.3039 168.613 31.3316 168.178 31.2436C167.737 31.1495 167.329 30.9395 166.957 30.6133C166.508 30.2208 166.212 29.7726 166.068 29.2688C165.917 28.7589 165.924 28.2288 166.088 27.6784C166.24 27.1288 166.552 26.5849 167.023 26.0465C167.494 25.5082 167.995 25.1239 168.525 24.8935C169.049 24.6571 169.573 24.5799 170.099 24.6619C170.611 24.7447 171.092 24.9824 171.54 25.3749ZM171.093 26.4089C170.658 26.0284 170.177 25.8818 169.65 25.9689C169.116 26.05 168.592 26.3839 168.079 26.9705C167.565 27.5572 167.307 28.1171 167.304 28.6502C167.287 29.1843 167.496 29.6415 167.931 30.0219C168.366 30.4024 168.85 30.5521 169.384 30.471C169.905 30.3908 170.423 30.0573 170.936 29.4707C171.449 28.884 171.714 28.3237 171.731 27.7897C171.74 27.2496 171.527 26.7893 171.093 26.4089Z" fill="#960D00"/>
<path d="M163.299 18.9956C164.633 19.9205 164.785 21.1253 163.756 22.61L161.749 25.5039C161.482 25.8882 161.161 25.9497 160.784 25.6884C160.4 25.4219 160.341 25.0965 160.607 24.7121L162.622 21.8069C162.93 21.3623 163.067 20.9718 163.032 20.6353C162.998 20.2989 162.785 19.9948 162.393 19.7231C161.963 19.4252 161.517 19.328 161.055 19.4315C160.585 19.5297 160.183 19.82 159.848 20.3023L158.03 22.9249C157.763 23.3092 157.438 23.3682 157.054 23.1016C156.677 22.8403 156.622 22.5175 156.888 22.1332L160.024 17.6115C160.29 17.2271 160.608 17.163 160.977 17.419C161.347 17.6751 161.398 17.9953 161.131 18.3797L160.865 18.764C161.27 18.5654 161.681 18.4877 162.098 18.5309C162.514 18.5742 162.915 18.729 163.299 18.9956Z" fill="#960D00"/>
<path d="M153.46 12.9249C153.814 13.1191 154.158 13.36 154.491 13.6477C154.825 13.9354 155.092 14.2596 155.292 14.6202C155.384 14.7756 155.413 14.9224 155.379 15.0607C155.345 15.1989 155.276 15.3071 155.17 15.3851C155.064 15.4632 154.948 15.4936 154.822 15.4765C154.683 15.463 154.565 15.3825 154.468 15.2352C154.247 14.8943 154.011 14.6083 153.762 14.3771C153.512 14.1459 153.246 13.9531 152.965 13.7987C152.539 13.5649 152.175 13.4648 151.874 13.4985C151.574 13.5322 151.353 13.6776 151.211 13.9349C151.097 14.1439 151.081 14.3445 151.164 14.5364C151.242 14.7364 151.409 14.948 151.663 15.1711L152.683 16.0289C153.581 16.7938 153.801 17.5943 153.342 18.4305C153.038 18.9852 152.574 19.3061 151.951 19.3931C151.328 19.4802 150.659 19.3274 149.943 18.9347C149.219 18.5377 148.693 18.019 148.365 17.3784C148.28 17.2275 148.259 17.0851 148.301 16.9512C148.339 16.8254 148.414 16.7257 148.528 16.6521C148.637 16.5865 148.759 16.5644 148.894 16.586C149.02 16.6031 149.136 16.6876 149.241 16.8394C149.403 17.1164 149.587 17.3533 149.793 17.55C149.994 17.7547 150.208 17.9188 150.433 18.0423C150.851 18.2717 151.212 18.3655 151.518 18.3238C151.819 18.2902 152.042 18.1407 152.187 17.8754C152.408 17.4734 152.284 17.0705 151.815 16.6668L150.795 15.809C150.33 15.4178 150.033 15.0247 149.904 14.6299C149.768 14.2307 149.816 13.818 150.05 13.3919C150.359 12.8291 150.823 12.5082 151.441 12.4292C152.056 12.3583 152.728 12.5235 153.46 12.9249Z" fill="#960D00"/>
<path d="M143.921 8.36214C144.553 8.63339 145.044 8.9991 145.396 9.45928C145.735 9.92426 145.928 10.4512 145.975 11.0401C146.018 11.6374 145.898 12.2647 145.616 12.922C145.197 13.8996 144.588 14.5514 143.789 14.8773C142.991 15.2033 142.119 15.1637 141.176 14.7586C140.881 14.6321 140.593 14.4537 140.312 14.2236C140.02 13.9982 139.778 13.7248 139.587 13.4032C139.488 13.261 139.459 13.1189 139.5 12.9768C139.529 12.8396 139.603 12.7264 139.721 12.6374C139.827 12.5531 139.948 12.5152 140.084 12.5237C140.216 12.5407 140.34 12.6238 140.456 12.7732C140.597 13.0033 140.76 13.193 140.945 13.3424C141.127 13.5002 141.315 13.6208 141.508 13.7039C142.107 13.9607 142.652 13.97 143.143 13.7318C143.623 13.4985 144.01 13.0362 144.307 12.3452C144.604 11.6541 144.677 11.0418 144.527 10.5083C144.364 9.97958 143.984 9.58683 143.386 9.33004C143.192 9.24686 142.981 9.19137 142.753 9.16356C142.517 9.13213 142.263 9.14285 141.991 9.1957C141.803 9.21487 141.664 9.17988 141.572 9.09073C141.472 8.99795 141.422 8.88173 141.422 8.74204C141.41 8.60717 141.446 8.47773 141.529 8.35374C141.6 8.23456 141.721 8.16177 141.892 8.13536C142.245 8.05726 142.6 8.04479 142.956 8.09795C143.304 8.14749 143.626 8.23556 143.921 8.36214Z" fill="#960D00"/>
<path d="M135.302 5.22073C135.748 5.36114 136.118 5.57389 136.413 5.85898C136.708 6.14406 136.914 6.46836 137.03 6.83186C137.138 7.19261 137.132 7.56106 137.014 7.93721C136.865 8.40959 136.63 8.7442 136.308 8.94105C135.978 9.13514 135.518 9.20669 134.929 9.15571C134.33 9.10197 133.559 8.92643 132.614 8.62908L132.168 8.48866L132.06 8.82983C131.903 9.32845 131.895 9.72015 132.037 10.0049C132.178 10.2897 132.489 10.5078 132.97 10.6592C133.25 10.7473 133.554 10.8046 133.882 10.8309C134.202 10.8546 134.549 10.8342 134.925 10.7699C135.137 10.7402 135.294 10.7753 135.397 10.8751C135.491 10.9721 135.54 11.0931 135.542 11.2381C135.545 11.3831 135.498 11.5173 135.401 11.6407C135.305 11.7642 135.162 11.8347 134.974 11.8524C134.534 11.9062 134.114 11.9133 133.713 11.8736C133.309 11.8427 132.941 11.7749 132.608 11.6703C131.734 11.395 131.152 10.9813 130.865 10.4293C130.574 9.88596 130.568 9.17255 130.846 8.28902L131.907 4.91676C132.048 4.47062 132.324 4.31225 132.735 4.44165C133.155 4.57381 133.294 4.86295 133.154 5.30909L133.001 5.79459C133.274 5.47674 133.61 5.26516 134.009 5.15983C134.407 5.05451 134.838 5.07481 135.302 5.22073ZM134.742 6.08289C134.27 5.93422 133.824 5.97653 133.404 6.20983C132.985 6.44313 132.695 6.81346 132.535 7.32084L132.424 7.67512L132.857 7.81141C133.495 8.01239 134.008 8.14008 134.395 8.19449C134.773 8.24613 135.064 8.22238 135.268 8.12323C135.461 8.03007 135.597 7.85664 135.677 7.60296C135.781 7.27054 135.753 6.96357 135.592 6.68204C135.428 6.40926 135.144 6.20954 134.742 6.08289Z" fill="#960D00"/>
<path d="M117.047 1.22852C117.63 1.30116 118.127 1.5018 118.539 1.83043C118.94 2.16702 119.232 2.60999 119.413 3.15936C119.594 3.70872 119.64 4.33832 119.551 5.04814C119.463 5.75796 119.264 6.35236 118.955 6.83133C118.644 7.3194 118.253 7.67725 117.781 7.90488C117.309 8.1325 116.777 8.20943 116.186 8.13565C115.685 8.07322 115.253 7.9084 114.889 7.64119C114.525 7.37397 114.27 7.04189 114.126 6.64494L113.695 10.0985C113.637 10.5626 113.381 10.7663 112.926 10.7096C112.462 10.6517 112.259 10.3907 112.316 9.92655L113.367 1.50422C113.425 1.0401 113.681 0.83642 114.136 0.893173C114.591 0.949926 114.79 1.21036 114.732 1.67447L114.667 2.19319C114.915 1.83595 115.249 1.56798 115.669 1.38928C116.087 1.21968 116.547 1.16609 117.047 1.22852ZM116.56 2.24899C115.995 2.17862 115.515 2.32662 115.118 2.693C114.721 3.05938 114.474 3.62934 114.378 4.40286C114.281 5.17639 114.381 5.78492 114.677 6.22847C114.972 6.68111 115.401 6.94262 115.965 7.013C116.539 7.08451 117.024 6.93707 117.421 6.57069C117.816 6.21341 118.063 5.648 118.159 4.87448C118.255 4.10095 118.156 3.48787 117.862 3.03522C117.567 2.58257 117.133 2.3205 116.56 2.24899Z" fill="#960D00"/>
<path d="M105.087 0.427064C105.766 0.434914 106.351 0.583841 106.843 0.873845C107.335 1.16385 107.715 1.56721 107.985 2.08392C108.244 2.6097 108.37 3.23023 108.362 3.9455C108.354 4.66078 108.214 5.27364 107.942 5.7841C107.661 6.30362 107.271 6.70265 106.772 6.9812C106.274 7.25975 105.685 7.3951 105.007 7.38725C104.346 7.37961 103.77 7.23079 103.278 6.94078C102.787 6.65078 102.406 6.24283 102.137 5.71695C101.868 5.20024 101.737 4.58424 101.746 3.86897C101.754 3.15369 101.899 2.53629 102.18 2.01677C102.461 1.50643 102.851 1.11198 103.349 0.833429C103.848 0.554881 104.427 0.419426 105.087 0.427064ZM105.075 1.49998C104.506 1.4934 104.045 1.69443 103.692 2.10305C103.339 2.51168 103.158 3.10573 103.149 3.8852C103.14 4.66466 103.307 5.25816 103.651 5.66568C103.995 6.08237 104.451 6.294 105.019 6.30058C105.597 6.30726 106.062 6.10629 106.416 5.69766C106.769 5.2982 106.95 4.70874 106.959 3.92927C106.968 3.14981 106.801 2.55173 106.457 2.13504C106.113 1.71835 105.653 1.50666 105.075 1.49998Z" fill="#960D00"/>
<path d="M86.6473 1.91699C87.0453 1.85061 87.4645 1.8272 87.9047 1.84676C88.3449 1.86631 88.755 1.95598 89.135 2.11575C89.3039 2.18057 89.4177 2.2778 89.4765 2.40745C89.5353 2.53711 89.5474 2.66526 89.5127 2.79191C89.4781 2.91856 89.4057 3.0143 89.2957 3.07914C89.1781 3.15454 89.0356 3.16435 88.8682 3.10858C88.4838 2.97745 88.1219 2.89834 87.7827 2.87123C87.4435 2.84413 87.1155 2.85697 86.7989 2.90977C86.3195 2.98973 85.972 3.13601 85.7564 3.34861C85.5408 3.56121 85.4572 3.81225 85.5055 4.10172C85.5447 4.33691 85.6563 4.50425 85.8402 4.60374C86.0257 4.71227 86.2873 4.77557 86.625 4.79363L87.957 4.83646C89.136 4.88158 89.804 5.37452 89.9609 6.31529C90.0649 6.93946 89.8992 7.47847 89.4635 7.93232C89.0278 8.38617 88.4074 8.68023 87.6023 8.81449C86.7882 8.95027 86.054 8.86817 85.3996 8.56821C85.2398 8.50189 85.135 8.40314 85.0852 8.27198C85.037 8.14986 85.0347 8.02473 85.0784 7.89657C85.1236 7.77746 85.2058 7.68473 85.3249 7.61838C85.4349 7.55354 85.5782 7.54825 85.7546 7.60251C86.0531 7.72008 86.3441 7.79242 86.6275 7.81953C86.9125 7.85568 87.1816 7.85264 87.4349 7.8104C87.9053 7.73196 88.2475 7.58191 88.4616 7.36026C88.6772 7.14766 88.76 6.8921 88.7103 6.59358C88.6348 6.14129 88.288 5.9016 87.6699 5.87453L86.3379 5.83169C85.7303 5.81215 85.2538 5.68706 84.9086 5.45642C84.5542 5.22729 84.3371 4.87301 84.2571 4.39357C84.1515 3.76036 84.3173 3.22135 84.7545 2.77655C85.1932 2.34079 85.8241 2.05427 86.6473 1.91699Z" fill="#960D00"/>
<path d="M76.1314 4.29154C77.1933 4.00255 78.1102 4.07142 78.8821 4.49813C79.6565 4.9337 80.1845 5.66914 80.4663 6.70447C80.6469 7.36815 80.6731 7.9883 80.5449 8.56494C80.4103 9.15283 80.1425 9.65339 79.7418 10.0666C79.341 10.4798 78.8309 10.7707 78.2114 10.9393C77.3177 11.1825 76.5359 11.0864 75.8662 10.6509C75.1988 10.2242 74.7291 9.5109 74.4569 8.51097C74.375 8.2101 74.5111 8.01151 74.865 7.91518L79.086 6.76646C78.6226 5.44791 77.7273 4.96925 76.3999 5.33048C76.1344 5.40273 75.8641 5.50956 75.589 5.65097C75.3162 5.80123 75.0668 6.00218 74.8406 6.25381C74.6837 6.41057 74.534 6.48932 74.3917 6.49004C74.2429 6.50203 74.1206 6.45451 74.025 6.34748C73.9317 6.2493 73.8867 6.11897 73.89 5.9565C73.8869 5.80528 73.955 5.6537 74.0942 5.50176C74.3397 5.21635 74.6515 4.96517 75.0296 4.7482C75.4014 4.5425 75.7686 4.39027 76.1314 4.29154ZM77.9019 10.0113C78.4594 9.85959 78.8549 9.56663 79.0883 9.13241C79.3218 8.6982 79.3957 8.18387 79.31 7.58942L75.6863 8.57558C75.8766 9.17008 76.1623 9.59131 76.5434 9.83925C76.927 10.096 77.3798 10.1534 77.9019 10.0113Z" fill="#960D00"/>
<path d="M66.5951 7.48957C68.106 6.89621 69.1916 7.44035 69.852 9.12197L71.1393 12.3999C71.3103 12.8352 71.1824 13.1367 70.7555 13.3043C70.3202 13.4753 70.0171 13.3431 69.8461 12.9077L68.5538 9.61704C68.356 9.1134 68.1077 8.78231 67.809 8.62375C67.5103 8.46519 67.139 8.47307 66.6951 8.64739C66.2085 8.83847 65.8796 9.15486 65.7082 9.59657C65.5283 10.0416 65.5456 10.5373 65.7601 11.0836L66.9267 14.0542C67.0977 14.4896 66.9655 14.7927 66.5302 14.9637C66.1033 15.1313 65.8045 14.9974 65.6335 14.5621L63.6221 9.44038C63.4512 9.00504 63.5748 8.70523 63.9931 8.54097C64.4114 8.37671 64.706 8.51225 64.8769 8.94759L65.0479 9.38294C65.1086 8.93543 65.2728 8.55073 65.5405 8.22884C65.8082 7.90696 66.1597 7.66053 66.5951 7.48957Z" fill="#960D00"/>
<path d="M49.6737 13.057C50.0625 12.8138 50.3809 12.8904 50.6289 13.2869L54.8607 20.0508C55.1088 20.4473 55.0424 20.7648 54.6614 21.0031C54.2727 21.2463 53.9543 21.1697 53.7062 20.7732L53.4289 20.33C53.4622 20.7635 53.37 21.1782 53.1525 21.5739C52.9398 21.9775 52.6196 22.313 52.192 22.5805C51.6867 22.8967 51.172 23.051 50.648 23.0435C50.1163 23.0408 49.6107 22.8811 49.1313 22.5644C48.649 22.2604 48.2182 21.8052 47.8388 21.1987C47.4594 20.5923 47.236 20.0019 47.1687 19.4274C47.0935 18.8578 47.1711 18.3333 47.4012 17.8539C47.6285 17.3872 47.9948 16.9958 48.5001 16.6796C48.92 16.4169 49.353 16.2704 49.7992 16.2401C50.2424 16.2224 50.6493 16.3194 51.0198 16.5312L49.4511 14.0239C49.203 13.6274 49.2772 13.3051 49.6737 13.057ZM49.3608 17.4068C48.871 17.7133 48.5917 18.1314 48.5229 18.6612C48.4464 19.1959 48.6148 19.7937 49.0283 20.4545C49.4417 21.1154 49.9032 21.5244 50.4126 21.6817C50.9192 21.8515 51.4174 21.7833 51.9072 21.4768C52.397 21.1704 52.6801 20.7498 52.7567 20.2151C52.8303 19.6931 52.6604 19.1016 52.247 18.4408C51.8335 17.7799 51.3735 17.3646 50.867 17.1947C50.3527 17.0297 49.8506 17.1004 49.3608 17.4068Z" fill="#960D00"/>
<path d="M41.3979 21.6834C41.7675 21.3969 42.0956 21.4384 42.3822 21.808L45.7538 26.1565C46.0404 26.5262 46.0061 26.8486 45.651 27.124C45.2959 27.3993 44.975 27.3522 44.6884 26.9826L44.326 26.5151C44.4339 26.9536 44.4103 27.3722 44.2553 27.771C44.093 28.1753 43.8129 28.5549 43.4151 28.9098C43.1638 29.1395 42.9064 29.1069 42.643 28.8121C42.3668 28.5157 42.3878 28.221 42.7059 27.9279L42.8956 27.746C43.7865 26.9044 43.8835 26.0342 43.1867 25.1355L41.2733 22.6678C40.9868 22.2981 41.0283 21.97 41.3979 21.6834Z" fill="#960D00"/>
<path d="M32.7242 29.0692C33.2161 28.6017 33.7394 28.3003 34.2942 28.1653C34.8491 28.0302 35.4031 28.054 35.9563 28.2367C36.5092 28.4324 37.032 28.7895 37.5248 29.308C38.0176 29.8265 38.3445 30.3634 38.5056 30.9189C38.6663 31.4874 38.6651 32.0452 38.502 32.5924C38.3389 33.1397 38.0113 33.647 37.5194 34.1146C37.0408 34.5695 36.5241 34.8644 35.9693 34.9995C35.4145 35.1346 34.8573 35.1075 34.2978 34.9181C33.7445 34.7354 33.2215 34.3848 32.7287 33.8663C32.2359 33.3478 31.9092 32.8043 31.7485 32.2359C31.5941 31.6741 31.5985 31.1196 31.7616 30.5724C31.9247 30.0251 32.2455 29.5241 32.7242 29.0692ZM33.4634 29.8469C33.0512 30.2386 32.861 30.7041 32.8927 31.2433C32.9244 31.7825 33.2088 32.3346 33.7458 32.8997C34.2828 33.4647 34.8166 33.7734 35.3472 33.8258C35.8841 33.8849 36.3586 33.7186 36.7708 33.3268C37.1896 32.9288 37.3831 32.4602 37.3514 31.921C37.326 31.3884 37.0448 30.8396 36.5078 30.2746C35.9708 29.7096 35.4338 29.3975 34.8969 29.3385C34.36 29.2794 33.8821 29.4489 33.4634 29.8469ZM37.7086 35.0924C37.674 34.9229 37.7164 34.7877 37.8357 34.687C37.9614 34.5929 38.1018 34.5543 38.2571 34.5712C38.4057 34.5944 38.5069 34.6943 38.5608 34.8708L39.241 37.2039C39.3009 37.4 39.2871 37.5586 39.1997 37.6796C39.1057 37.807 38.9804 37.8881 38.8238 37.9231C38.6669 37.971 38.518 37.9607 38.377 37.8922C38.2423 37.8304 38.1612 37.7051 38.1336 37.5163L37.7086 35.0924Z" fill="#960D00"/>
<path d="M26.5526 35.5307C26.7125 35.3417 26.9051 35.2704 27.1302 35.3167C27.3493 35.37 27.4918 35.5566 27.5575 35.8765L28.1777 39.1045L31.219 39.1733C31.5443 39.1722 31.7484 39.2789 31.8313 39.4932C31.9142 39.7075 31.8787 39.9057 31.7246 40.0877C31.6121 40.2208 31.4958 40.3085 31.3757 40.3511C31.2566 40.4065 31.1121 40.4283 30.9419 40.4165L28.3868 40.3267L28.8892 42.8422C28.929 43.008 28.9344 43.1507 28.9053 43.2703C28.8832 43.3958 28.8159 43.525 28.7033 43.658C28.5493 43.84 28.3597 43.9079 28.1346 43.8616C27.9095 43.8152 27.7671 43.6286 27.7073 43.3017L27.1364 40.3137L23.8608 40.2449C23.5414 40.2389 23.3368 40.1258 23.2469 39.9056C23.158 39.6982 23.1936 39.5 23.3535 39.311C23.549 39.08 23.8099 38.9704 24.1363 38.9823L26.9151 39.0632L26.3667 36.3466C26.3339 36.1866 26.3285 36.0439 26.3506 35.9184C26.3727 35.793 26.44 35.6637 26.5526 35.5307Z" fill="#960D00"/>
<path d="M26.418 49.1131C26.5765 48.8882 26.7568 48.7517 26.9591 48.7035C27.1561 48.6628 27.3558 48.7138 27.5582 48.8564C27.9854 49.1575 28.0327 49.5442 27.6999 50.0165C27.367 50.4888 26.987 50.5743 26.5597 50.2732C26.1324 49.9721 26.0852 49.5854 26.418 49.1131ZM19.6376 44.3347C19.9017 43.9599 20.24 43.9177 20.6523 44.2083L25.0376 47.2988C25.4424 47.5841 25.5127 47.9142 25.2486 48.289C24.9791 48.6713 24.642 48.7198 24.2372 48.4345L19.8519 45.344C19.4396 45.0534 19.3682 44.717 19.6376 44.3347Z" fill="#960D00"/>
<path d="M15.4166 50.692C15.6386 50.2908 15.9543 50.2034 16.3635 50.4299L21.1781 53.094C21.5873 53.3204 21.6831 53.6302 21.4656 54.0234C21.248 54.4166 20.9346 54.5 20.5254 54.2735L20.1041 54.0404C20.3434 54.4034 20.4688 54.7925 20.4802 55.2076C20.4916 55.6226 20.3818 56.0388 20.1509 56.4561C19.6537 57.3548 18.9386 57.719 18.0056 57.5486C18.2726 57.9374 18.415 58.3621 18.4327 58.8226C18.4504 59.2831 18.3372 59.734 18.0929 60.1753C17.3648 61.4913 16.2143 61.7141 14.6415 60.8439L11.5482 59.1322C11.1389 58.9058 11.0475 58.5879 11.274 58.1787C11.496 57.7775 11.8116 57.6901 12.2209 57.9165L15.254 59.5949C15.7515 59.8702 16.1655 59.9839 16.4959 59.9362C16.8218 59.8964 17.0936 59.68 17.3111 59.2868C17.5553 58.8454 17.592 58.4098 17.4212 57.9799C17.2583 57.5544 16.9121 57.1951 16.3825 56.902L13.6262 55.3769C13.2169 55.1504 13.1233 54.8366 13.3453 54.4354C13.5718 54.0261 13.8896 53.9347 14.2988 54.1612L17.332 55.8395C17.8295 56.1148 18.2412 56.2326 18.5672 56.1928C18.8931 56.1531 19.1649 55.9366 19.3825 55.5434C19.6267 55.1021 19.6633 54.6665 19.4925 54.2365C19.3252 53.8191 18.9768 53.4638 18.4472 53.1707L15.6908 51.6456C15.2816 51.4191 15.1902 51.1013 15.4166 50.692Z" fill="#960D00"/>
<path d="M7.90757 66.0426C8.15728 65.4115 8.50542 64.9181 8.95199 64.5622C9.39856 64.2063 9.91123 63.995 10.49 63.9281C11.0739 63.8732 11.6985 63.9773 12.3636 64.2405C13.0287 64.5037 13.5511 64.8534 13.9308 65.2897C14.3156 65.7379 14.5491 66.2445 14.6313 66.8096C14.7134 67.3747 14.6296 67.9727 14.3799 68.6038C14.1369 69.2177 13.7922 69.7027 13.3456 70.0585C12.899 70.4144 12.3821 70.6241 11.7948 70.6876C11.216 70.7544 10.5941 70.6562 9.92893 70.393C9.26379 70.1298 8.73881 69.7741 8.35398 69.326C7.97768 68.8812 7.74846 68.3762 7.66633 67.8112C7.5842 67.2461 7.66461 66.6565 7.90757 66.0426ZM8.90528 66.4374C8.69607 66.9661 8.71921 67.4684 8.97472 67.9443C9.23022 68.4202 9.72039 68.8015 10.4452 69.0883C11.1701 69.3752 11.7842 69.4308 12.2876 69.2552C12.7996 69.083 13.1602 68.7326 13.3694 68.2039C13.582 67.6667 13.5605 67.1601 13.305 66.6842C13.058 66.2117 12.5721 65.832 11.8473 65.5452C11.1225 65.2584 10.5041 65.2011 9.99211 65.3732C9.48015 65.5454 9.11787 65.9001 8.90528 66.4374Z" fill="#960D00"/>
<path d="M0.622366 81.7247C0.709846 81.2746 0.983147 81.0942 1.44227 81.1834L9.27433 82.7055C9.73345 82.7948 9.92015 83.0599 9.83442 83.5011C9.74694 83.9512 9.47364 84.1316 9.01452 84.0424L8.50138 83.9427C8.84099 84.2142 9.0812 84.5645 9.22203 84.9936C9.37185 85.4245 9.39865 85.8874 9.30243 86.3826C9.1887 86.9677 8.95031 87.4492 8.58726 87.8271C8.22245 88.214 7.76074 88.4746 7.20211 88.6089C6.65074 88.754 6.02396 88.7583 5.32178 88.6219C4.61959 88.4854 4.03555 88.2458 3.56966 87.903C3.10201 87.5692 2.77152 87.1546 2.57817 86.6593C2.39208 86.1747 2.3559 85.6398 2.46962 85.0546C2.5641 84.5685 2.75249 84.152 3.03477 83.8051C3.32431 83.469 3.67288 83.2378 4.08047 83.1115L1.1772 82.5472C0.718081 82.458 0.533136 82.1838 0.622366 81.7247ZM3.58851 84.9217C3.47829 85.4889 3.59336 85.9784 3.93373 86.3902C4.27235 86.811 4.82427 87.0958 5.58947 87.2445C6.35467 87.3932 6.96856 87.335 7.43115 87.0699C7.901 86.8156 8.19103 86.4048 8.30125 85.8377C8.41148 85.2705 8.29728 84.7765 7.95866 84.3557C7.62729 83.9456 7.07901 83.6662 6.3138 83.5175C5.5486 83.3688 4.93108 83.4216 4.46124 83.676C3.98965 83.9393 3.69874 84.3546 3.58851 84.9217Z" fill="#960D00"/>
<path d="M1.28111 93.6616C1.32384 93.1958 1.57809 92.9843 2.04384 93.027L7.52332 93.5298C7.98907 93.5725 8.20142 93.8176 8.16037 94.2651C8.11931 94.7126 7.8659 94.915 7.40015 94.8722L6.8111 94.8182C7.20531 95.0385 7.49524 95.3414 7.6809 95.7268C7.86573 96.1214 7.95211 96.5852 7.94004 97.1182C7.93643 97.4586 7.73702 97.6245 7.34182 97.6159C6.93664 97.6155 6.73547 97.3991 6.73832 96.9665L6.73481 96.7037C6.72752 95.4782 6.15767 94.8135 5.02525 94.7096L1.91565 94.4243C1.44989 94.3816 1.23838 94.1273 1.28111 93.6616Z" fill="#960D00"/>
<path d="M0.755067 104.257C0.752751 103.789 0.842392 103.372 1.02399 103.004C1.20559 102.636 1.45174 102.342 1.76246 102.12C2.07322 101.907 2.42577 101.8 2.82011 101.798C3.31533 101.796 3.70569 101.918 3.99121 102.164C4.27677 102.419 4.48518 102.836 4.61643 103.413C4.74773 103.999 4.81583 104.787 4.82073 105.778L4.82305 106.245L5.1807 106.244C5.70343 106.241 6.07889 106.129 6.30707 105.908C6.53524 105.687 6.64808 105.324 6.64559 104.82C6.64413 104.526 6.60593 104.219 6.53097 103.898C6.45607 103.587 6.33065 103.262 6.15473 102.924C6.06206 102.731 6.04751 102.571 6.11107 102.442C6.17468 102.323 6.27515 102.24 6.41248 102.193C6.54981 102.147 6.69198 102.151 6.83899 102.205C6.98599 102.259 7.09661 102.373 7.17083 102.547C7.35625 102.95 7.4912 103.348 7.57569 103.742C7.66934 104.136 7.71704 104.507 7.71876 104.855C7.7233 105.773 7.50657 106.452 7.06855 106.895C6.63971 107.337 5.96217 107.56 5.03593 107.565L1.50062 107.583C1.03291 107.585 0.797994 107.37 0.79586 106.939C0.79368 106.499 1.02644 106.278 1.49415 106.276L2.00312 106.273C1.61714 106.11 1.31323 105.855 1.09141 105.507C0.869588 105.16 0.757473 104.743 0.755067 104.257ZM1.74686 104.527C1.74932 105.023 1.9256 105.434 2.27572 105.763C2.62585 106.091 3.06686 106.254 3.59876 106.252L3.97017 106.25L3.96792 105.796C3.96461 105.126 3.9299 104.599 3.8638 104.214C3.79774 103.839 3.68635 103.569 3.52963 103.404C3.38213 103.249 3.1754 103.172 2.90945 103.174C2.56097 103.175 2.27727 103.296 2.05835 103.535C1.8486 103.775 1.74478 104.106 1.74686 104.527Z" fill="#960D00"/>
<path d="M1.42994 115.725C1.34454 114.885 1.49536 114.239 1.8824 113.784C2.26944 113.33 2.86897 113.062 3.68098 112.979L6.91077 112.651L6.82723 111.829C6.78824 111.446 6.94666 111.236 7.30248 111.2C7.65831 111.164 7.85571 111.338 7.8947 111.721L7.97825 112.542L9.38786 112.398C9.85317 112.351 10.1095 112.56 10.1568 113.025C10.2033 113.482 9.99381 113.733 9.5285 113.781L8.11888 113.924L8.2818 115.525C8.32079 115.909 8.16237 116.118 7.80654 116.154C7.45072 116.191 7.25331 116.017 7.21432 115.634L7.05141 114.033L3.9311 114.35C3.44754 114.399 3.09281 114.537 2.86689 114.763C2.6419 114.998 2.55308 115.348 2.60042 115.813C2.61713 115.977 2.6452 116.117 2.68464 116.233C2.7332 116.348 2.76669 116.451 2.78509 116.541C2.7953 116.641 2.76716 116.727 2.70067 116.798C2.6433 116.869 2.51882 116.914 2.32722 116.933C2.18124 116.948 2.04617 116.934 1.92199 116.891C1.80786 116.857 1.72605 116.778 1.67656 116.654C1.6198 116.549 1.56799 116.402 1.52113 116.213C1.47519 116.034 1.4448 115.871 1.42994 115.725Z" fill="#960D00"/>
<path d="M2.90943 124.842C2.77337 124.177 2.79496 123.574 2.97419 123.032C3.15343 122.489 3.46704 122.032 3.91501 121.66C4.37381 121.294 4.95362 121.04 5.65441 120.896C6.35521 120.753 6.98384 120.76 7.5403 120.918C8.10758 121.082 8.58013 121.379 8.95794 121.807C9.33575 122.235 9.59269 122.782 9.72875 123.447C9.86113 124.093 9.83771 124.688 9.65847 125.23C9.47924 125.772 9.16114 126.231 8.70417 126.605C8.2562 126.977 7.68181 127.235 6.98101 127.379C6.28021 127.522 5.64617 127.512 5.07889 127.347C4.52059 127.18 4.05253 126.883 3.67472 126.455C3.29691 126.027 3.04182 125.489 2.90943 124.842ZM3.96063 124.627C4.07463 125.184 4.36871 125.592 4.84289 125.851C5.31707 126.109 5.936 126.16 6.69969 126.004C7.46338 125.848 8.00796 125.559 8.33341 125.136C8.66785 124.712 8.77807 124.222 8.66407 123.664C8.54824 123.098 8.25323 122.686 7.77905 122.427C7.31386 122.167 6.69942 122.115 5.93573 122.271C5.17204 122.427 4.62297 122.718 4.28853 123.142C3.9541 123.566 3.8448 124.061 3.96063 124.627Z" fill="#960D00"/>
<path d="M7.14603 138.303C6.99065 138.237 6.89126 138.139 6.84788 138.008C6.80449 137.878 6.80797 137.752 6.85832 137.633C6.90867 137.513 6.99157 137.425 7.10702 137.368C7.23096 137.308 7.3766 137.313 7.54393 137.383L10.4073 138.579L11.6308 135.675C11.7013 135.507 11.8019 135.402 11.9328 135.359C12.0637 135.315 12.1889 135.319 12.3084 135.369C12.4314 135.428 12.523 135.519 12.5834 135.643C12.6438 135.767 12.6387 135.913 12.5682 136.08L11.3523 138.967L14.2388 140.182C14.4061 140.253 14.5115 140.354 14.5549 140.484C14.5983 140.615 14.5905 140.742 14.5317 140.865C14.4848 140.993 14.3994 141.087 14.2754 141.148C14.1515 141.208 14.0101 141.201 13.8513 141.127L10.9469 139.904L9.7333 142.76C9.66281 142.927 9.56214 143.032 9.43127 143.076C9.30891 143.116 9.18796 143.111 9.06844 143.06C8.94891 143.01 8.85896 142.923 8.79859 142.799C8.74168 142.683 8.74421 142.544 8.80621 142.38L10.0146 139.511L7.14603 138.303Z" fill="#960D00"/>
</svg>
