<svg width="1149" height="1007" viewBox="0 0 1149 1007" fill="none" xmlns="http://www.w3.org/2000/svg">
<circle cx="574.636" cy="503.5" r="503.5" fill="url(#paint0_radial_318_49)"/>
<circle cx="574.636" cy="503.5" r="464.5" fill="#D8D8D8"/>
<circle cx="575.136" cy="504" r="450" fill="url(#paint1_radial_318_49)"/>
<circle cx="575.136" cy="504" r="378" fill="url(#paint2_linear_318_49)"/>
<path fill-rule="evenodd" clip-rule="evenodd" d="M51.8082 390H88.1362V633H50.346C40.0529 633 30.269 628.522 23.5412 620.732C18.026 614.346 14.2007 606.679 12.4153 598.432L4.63622 562.5L0.891258 526.072C-0.2758 514.719 -0.296778 503.278 0.82864 491.922L3.77479 462.193C4.34831 456.405 5.34432 450.668 6.75483 445.026L12.4634 422.191C14.2195 415.167 17.6392 408.668 22.4339 403.242C29.8749 394.822 40.5714 390 51.8082 390ZM76.7099 429C55.7359 429 38.518 445.588 37.7369 466.548L36.1362 509.5L37.8262 559.355C38.5568 580.907 56.2394 598 77.8033 598H80.1362V429H76.7099Z" fill="url(#paint3_radial_318_49)"/>
<path fill-rule="evenodd" clip-rule="evenodd" d="M1096.46 633H1060.14V390H1097.93C1108.22 390 1118 394.478 1124.73 402.268C1130.25 408.654 1134.07 416.321 1135.86 424.568L1143.64 460.5L1147.38 496.928C1148.55 508.281 1148.57 519.722 1147.44 531.078L1144.5 560.807C1143.92 566.595 1142.93 572.332 1141.52 577.974L1135.81 600.809C1134.05 607.833 1130.63 614.332 1125.84 619.758C1118.4 628.178 1107.7 633 1096.46 633ZM1071.56 594C1092.54 594 1109.75 577.412 1110.54 556.452L1112.14 513.5L1110.45 463.645C1109.72 442.093 1092.03 425 1070.47 425H1068.14V594H1071.56Z" fill="url(#paint4_radial_318_49)"/>
<path d="M700 387.014C700 428.213 678.291 461.611 651.512 461.611C624.733 461.611 603.025 428.213 603.025 387.014C603.025 345.816 624.733 312.418 651.512 312.418C678.291 312.418 700 345.816 700 387.014Z" fill="url(#paint5_linear_318_49)"/>
<path d="M641.069 482.125C640.771 462.431 633.734 455.493 629.506 453.503H673.518C662.776 459.77 660.091 474.541 660.091 482.125H641.069Z" fill="url(#paint6_linear_318_49)"/>
<path d="M641.069 482.125H660.091L664.567 596.63L671.965 696.984C672.602 705.632 665.758 713 657.086 713H650.556C642.11 713 635.348 705.996 635.646 697.555L639.204 596.63L641.069 482.125Z" fill="url(#paint7_linear_318_49)"/>
<ellipse cx="651.512" cy="386.269" rx="44.7578" ry="69.3746" fill="url(#paint8_radial_318_49)"/>
<path d="M472.186 450.193H485.394L489.167 578.055L492.941 646.646L495.627 698.823C496.016 706.38 490.006 712.76 482.348 712.921L478.601 713L474.562 712.917C466.872 712.759 460.848 706.33 461.282 698.743L464.261 646.646L468.412 578.055L472.186 450.193Z" fill="url(#paint9_linear_318_49)"/>
<path d="M455.582 417.762C462.752 425.963 471.809 444.974 472.186 450.193H485.394C484.488 440.352 498.979 424.844 502.752 417.762C508.211 407.516 508.79 384.585 507.281 370.419L496.337 294L497.469 370.419C497.092 372.407 495.733 376.383 493.318 376.383C490.903 376.383 490.299 372.407 490.299 370.419L484.639 294L482.752 370.419C482.752 372.407 481.922 376.383 478.601 376.383C475.28 376.383 474.45 372.407 474.45 370.419L472.186 294L466.903 370.419C467.029 372.283 466.45 376.085 463.129 376.383C459.808 376.682 459.23 372.531 459.356 370.419V294L450.676 370.419L449.167 389.058C448.035 403.223 452.94 414.034 455.582 417.762Z" fill="url(#paint10_linear_318_49)"/>
<g filter="url(#filter0_f_318_49)">
<ellipse cx="445.638" cy="348.584" rx="34.5" ry="23.6896" transform="rotate(49.0603 445.638 348.584)" fill="url(#paint11_radial_318_49)" fill-opacity="0.2"/>
</g>
<defs>
<filter id="filter0_f_318_49" x="412.805" y="314.246" width="65.6667" height="68.6772" filterUnits="userSpaceOnUse" color-interpolation-filters="sRGB">
<feFlood flood-opacity="0" result="BackgroundImageFix"/>
<feBlend mode="normal" in="SourceGraphic" in2="BackgroundImageFix" result="shape"/>
<feGaussianBlur stdDeviation="2" result="effect1_foregroundBlur_318_49"/>
</filter>
<radialGradient id="paint0_radial_318_49" cx="0" cy="0" r="1" gradientUnits="userSpaceOnUse" gradientTransform="translate(574.636 503.5) rotate(89.9029) scale(295 533.666)">
<stop stop-color="#A3A3A3"/>
<stop offset="0.996897" stop-color="#C5C5C5"/>
</radialGradient>
<radialGradient id="paint1_radial_318_49" cx="0" cy="0" r="1" gradientUnits="userSpaceOnUse" gradientTransform="translate(575.136 504) rotate(-48.4874) scale(511.478 474.232)">
<stop stop-color="#6B6B6B"/>
<stop offset="1" stop-opacity="0.07"/>
</radialGradient>
<linearGradient id="paint2_linear_318_49" x1="575.136" y1="126" x2="575.136" y2="882" gradientUnits="userSpaceOnUse">
<stop stop-color="#DDD6D6"/>
<stop offset="1" stop-color="#D3CFCF"/>
</linearGradient>
<radialGradient id="paint3_radial_318_49" cx="0" cy="0" r="1" gradientUnits="userSpaceOnUse" gradientTransform="translate(62.8862 515) rotate(-169.185) scale(130.569 380.349)">
<stop stop-color="#C5C5C5"/>
<stop offset="1" stop-color="#C5C5C5" stop-opacity="0"/>
</radialGradient>
<radialGradient id="paint4_radial_318_49" cx="0" cy="0" r="1" gradientUnits="userSpaceOnUse" gradientTransform="translate(1085.39 508) rotate(-23.2935) scale(178.282 519.336)">
<stop stop-color="#C5C5C5"/>
<stop offset="1" stop-color="#C5C5C5" stop-opacity="0"/>
</radialGradient>
<linearGradient id="paint5_linear_318_49" x1="610.484" y1="331.813" x2="734.314" y2="893.15" gradientUnits="userSpaceOnUse">
<stop stop-color="#AEAEAE"/>
<stop offset="0.939748" stop-color="#AEAEAE"/>
</linearGradient>
<linearGradient id="paint6_linear_318_49" x1="610.484" y1="331.813" x2="734.314" y2="893.15" gradientUnits="userSpaceOnUse">
<stop stop-color="#AEAEAE"/>
<stop offset="0.939748" stop-color="#AEAEAE"/>
</linearGradient>
<linearGradient id="paint7_linear_318_49" x1="610.484" y1="331.813" x2="734.314" y2="893.15" gradientUnits="userSpaceOnUse">
<stop stop-color="#AEAEAE"/>
<stop offset="0.939748" stop-color="#AEAEAE"/>
</linearGradient>
<radialGradient id="paint8_radial_318_49" cx="0" cy="0" r="1" gradientUnits="userSpaceOnUse" gradientTransform="translate(651.512 386.269) rotate(6.64865) scale(61.2076 73.5885)">
<stop stop-color="#D2D2D2"/>
<stop offset="1" stop-color="#BFBFBF" stop-opacity="0"/>
</radialGradient>
<linearGradient id="paint9_linear_318_49" x1="453.538" y1="314.287" x2="657.689" y2="852.58" gradientUnits="userSpaceOnUse">
<stop stop-color="#AEAEAE"/>
<stop offset="0.939748" stop-color="#AEAEAE"/>
</linearGradient>
<linearGradient id="paint10_linear_318_49" x1="453.538" y1="314.287" x2="657.689" y2="852.58" gradientUnits="userSpaceOnUse">
<stop stop-color="#AEAEAE"/>
<stop offset="0.939748" stop-color="#AEAEAE"/>
</linearGradient>
<radialGradient id="paint11_radial_318_49" cx="0" cy="0" r="1" gradientUnits="userSpaceOnUse" gradientTransform="translate(445.638 348.584) rotate(105.564) scale(35.9723 52.3878)">
<stop stop-color="white"/>
<stop offset="1" stop-color="#C1C1C1" stop-opacity="0"/>
<stop offset="1" stop-color="white" stop-opacity="0"/>
</radialGradient>
</defs>
</svg>
