<svg width="26" height="26" viewBox="0 0 26 26" fill="none" xmlns="http://www.w3.org/2000/svg">
<path d="M9.35717 24.9522L9.36313 24.2022L9.35717 24.9522ZM15.3524 24.9998L15.3584 24.2498L15.3524 24.9998ZM21.4 11.2203V10.4703H20.65V11.2203H21.4ZM21.4 16.0299H20.65V16.7799H21.4V16.0299ZM24.3171 12.8425L23.5847 13.0042V13.0042L24.3171 12.8425ZM24.3984 13.3924L25.1478 13.3611L24.3984 13.3924ZM24.2738 14.3911L23.5426 14.224L24.2738 14.3911ZM23.5807 11.6858L23.0937 12.2562L23.5807 11.6858ZM23.7206 15.3475L23.1913 14.8162V14.8162L23.7206 15.3475ZM4 11.2203H4.75V10.4703H4V11.2203ZM4 16.0299V16.7799H4.75V16.0299H4ZM1.08292 12.8425L1.81528 13.0042L1.81528 13.0042L1.08292 12.8425ZM1.00158 13.3924L0.252239 13.3611L1.00158 13.3924ZM1.12624 14.3911L1.8574 14.224L1.12624 14.3911ZM1.81933 11.6858L2.30631 12.2562L1.81933 11.6858ZM1.67942 15.3475L2.2087 14.8162L2.2087 14.8162L1.67942 15.3475ZM13.6427 3.91928L13.9502 4.60331L14.6333 4.2962L14.3272 3.61273L13.6427 3.91928ZM13.303 3.16079L12.6185 3.46733L12.6185 3.46733L13.303 3.16079ZM9.4427 5.14408L8.75821 5.45063L9.4427 5.14408ZM9.6901 5.6965L9.00561 6.00305L9.31261 6.68856L9.99766 6.38054L9.6901 5.6965ZM11.2317 2.11182L11.0794 1.37743V1.37743L11.2317 2.11182ZM10.7497 2.24791L10.4711 1.55158L10.4711 1.55158L10.7497 2.24791ZM9.97501 2.71979L9.52243 2.12174V2.12174L9.97501 2.71979ZM12.4544 2.292L12.7766 1.61474L12.4544 2.292ZM9.39339 3.52965L8.69146 3.26547V3.26547L9.39339 3.52965ZM3.08365 8.13554C2.70809 8.31026 2.54527 8.75635 2.71998 9.13191C2.8947 9.50747 3.34079 9.67029 3.71635 9.49557L3.08365 8.13554ZM20.5164 1.68002C20.8919 1.5053 21.0547 1.05921 20.88 0.683649C20.7053 0.308086 20.2592 0.145268 19.8836 0.319984L20.5164 1.68002ZM15.4 8.06556C14.9858 8.06557 14.65 8.40137 14.65 8.81558C14.65 9.22979 14.9858 9.56557 15.4 9.56556L15.4 8.06556ZM19.9828 5.39676C20.3792 5.51672 20.7979 5.29257 20.9179 4.89611C21.0378 4.49965 20.8137 4.08101 20.4172 3.96104L19.9828 5.39676ZM20.2 8.06556C19.7858 8.06557 19.45 8.40137 19.45 8.81558C19.45 9.22979 19.7858 9.56557 20.2 9.56556L20.2 8.06556ZM24.7828 5.39676C25.1792 5.51672 25.5979 5.29257 25.7179 4.89611C25.8378 4.49965 25.6137 4.08101 25.2172 3.96104L24.7828 5.39676ZM3.25 11.8226V19.5413H4.75V11.8226H3.25ZM9.35121 25.7021L15.3465 25.7498L15.3584 24.2498L9.36313 24.2022L9.35121 25.7021ZM22.15 18.988V11.8215H20.65V18.988H22.15ZM20.8 10.4703H4.6V11.9703H20.8V10.4703ZM22.15 11.8215C22.15 11.0767 21.547 10.4703 20.8 10.4703V11.9703C20.7157 11.9703 20.65 11.9023 20.65 11.8215H22.15ZM15.3465 25.7498C19.0966 25.7796 22.15 22.7421 22.15 18.988H20.65C20.65 21.9119 18.2726 24.273 15.3584 24.2498L15.3465 25.7498ZM3.25 19.5413C3.25 22.9233 5.97236 25.6753 9.35121 25.7021L9.36313 24.2022C6.81092 24.1819 4.75 22.1024 4.75 19.5413H3.25ZM4.75 11.8226C4.75 11.9016 4.686 11.9703 4.6 11.9703V10.4703C3.85125 10.4703 3.25 11.0795 3.25 11.8226H4.75ZM21.4 11.9703H22.3193V10.4703H21.4V11.9703ZM22.0695 15.2799H21.4V16.7799H22.0695V15.2799ZM22.15 16.0299V11.2203H20.65V16.0299H22.15ZM23.5847 13.0042C23.6219 13.1725 23.6447 13.3194 23.6491 13.4238L25.1478 13.3611C25.1381 13.1289 25.0943 12.884 25.0494 12.6808L23.5847 13.0042ZM23.6491 13.4238C23.6575 13.6243 23.6106 13.9265 23.5426 14.224L25.0049 14.5581C25.0783 14.2371 25.165 13.772 25.1478 13.3611L23.6491 13.4238ZM25.0494 12.6808C24.9047 12.0252 24.5155 11.4978 24.0676 11.1154L23.0937 12.2562C23.3594 12.483 23.5269 12.7426 23.5847 13.0042L25.0494 12.6808ZM22.0695 16.7799C22.8868 16.7799 23.6707 16.4558 24.2499 15.8789L23.1913 14.8162C22.8929 15.1134 22.4896 15.2799 22.0695 15.2799V16.7799ZM23.5426 14.224C23.4964 14.4262 23.3783 14.6299 23.1913 14.8162L24.2499 15.8789C24.5954 15.5348 24.8836 15.0893 25.0049 14.5581L23.5426 14.224ZM22.3193 11.9703C22.6029 11.9703 22.8774 12.0716 23.0937 12.2562L24.0676 11.1154C23.5801 10.6991 22.9603 10.4703 22.3193 10.4703V11.9703ZM4 10.4703H3.08073V11.9703H4V10.4703ZM3.33048 16.7799H4V15.2799H3.33048V16.7799ZM4.75 16.0299V11.2203H3.25V16.0299H4.75ZM0.350571 12.6808C0.305682 12.884 0.261949 13.1289 0.252239 13.3611L1.75093 13.4238C1.7553 13.3194 1.77812 13.1725 1.81528 13.0042L0.350571 12.6808ZM0.252239 13.3611C0.235047 13.772 0.321745 14.2371 0.395084 14.5581L1.8574 14.224C1.78943 13.9265 1.74254 13.6243 1.75093 13.4238L0.252239 13.3611ZM1.81528 13.0042C1.87306 12.7426 2.0406 12.483 2.30631 12.2562L1.33235 11.1154C0.884463 11.4978 0.495346 12.0252 0.35057 12.6808L1.81528 13.0042ZM3.33048 15.2799C2.9104 15.2799 2.50708 15.1134 2.2087 14.8162L1.15014 15.8789C1.72934 16.4558 2.51315 16.7799 3.33048 16.7799V15.2799ZM0.395084 14.5581C0.516448 15.0893 0.804652 15.5348 1.15014 15.8789L2.2087 14.8162C2.02166 14.6299 1.9036 14.4262 1.8574 14.224L0.395084 14.5581ZM3.08073 10.4703C2.43972 10.4703 1.8199 10.6991 1.33235 11.1154L2.30631 12.2562C2.52256 12.0716 2.79711 11.9703 3.08073 11.9703V10.4703ZM14.3272 3.61273L13.9875 2.85424L12.6185 3.46733L12.9582 4.22582L14.3272 3.61273ZM8.75821 5.45063L9.00561 6.00305L10.3746 5.38995L10.1272 4.83753L8.75821 5.45063ZM9.99766 6.38054L13.9502 4.60331L13.3351 3.23524L9.38253 5.01247L9.99766 6.38054ZM11.0794 1.37743C10.894 1.41588 10.6715 1.47138 10.4711 1.55158L11.0283 2.94424C11.1096 2.9117 11.2337 2.87734 11.3839 2.8462L11.0794 1.37743ZM10.4711 1.55158C10.117 1.69325 9.76007 1.9419 9.52243 2.12174L10.4276 3.31785C10.6461 3.15252 10.8703 3.00744 11.0283 2.94424L10.4711 1.55158ZM11.3839 2.8462C11.6 2.80141 11.8582 2.8389 12.1322 2.96926L12.7766 1.61474C12.2862 1.38144 11.692 1.25043 11.0794 1.37743L11.3839 2.8462ZM10.1272 4.83753C9.97941 4.50756 9.96794 4.13229 10.0953 3.79383L8.69146 3.26547C8.42476 3.9741 8.44874 4.75962 8.75821 5.45063L10.1272 4.83753ZM9.52243 2.12174C9.1172 2.4284 8.85032 2.84337 8.69146 3.26547L10.0953 3.79383C10.1756 3.58054 10.292 3.42045 10.4276 3.31785L9.52243 2.12174ZM13.9875 2.85424C13.7439 2.31032 13.3147 1.87077 12.7766 1.61474L12.1322 2.96926C12.3479 3.07189 12.5204 3.24835 12.6185 3.46733L13.9875 2.85424ZM3.71635 9.49557L20.5164 1.68002L19.8836 0.319984L3.08365 8.13554L3.71635 9.49557ZM15.4 8.81556C15.4 9.56556 15.4003 9.56556 15.4007 9.56556C15.4008 9.56556 15.4011 9.56556 15.4013 9.56556C15.4018 9.56555 15.4023 9.56555 15.4028 9.56555C15.4039 9.56555 15.4051 9.56554 15.4064 9.56553C15.409 9.56552 15.412 9.56549 15.4156 9.56544C15.4227 9.56534 15.4317 9.56518 15.4424 9.56488C15.4639 9.56428 15.4926 9.56318 15.5274 9.56111C15.5967 9.557 15.6919 9.54903 15.8045 9.53347C16.0259 9.50288 16.3342 9.44037 16.653 9.30822C16.971 9.17641 17.3313 8.96199 17.6143 8.61004C17.907 8.24613 18.0817 7.77836 18.0817 7.2143H16.5817C16.5817 7.45083 16.515 7.58353 16.4454 7.66996C16.3663 7.76836 16.2436 7.85418 16.0787 7.92253C15.9146 7.99055 15.74 8.02813 15.5992 8.04759C15.5307 8.05705 15.4749 8.06159 15.4387 8.06374C15.4206 8.06481 15.4078 8.06526 15.401 8.06545C15.3976 8.06555 15.3957 8.06557 15.3955 8.06557C15.3954 8.06558 15.3957 8.06557 15.3964 8.06557C15.3968 8.06556 15.3973 8.06556 15.3979 8.06556C15.3982 8.06556 15.3985 8.06556 15.3988 8.06556C15.399 8.06556 15.3993 8.06556 15.3994 8.06556C15.3997 8.06556 15.4 8.06556 15.4 8.81556ZM18.0817 7.2143C18.0817 6.65428 18.3554 6.11833 18.7642 5.75993C19.1787 5.39654 19.6345 5.29137 19.9828 5.39676L20.4172 3.96104C19.4426 3.66613 18.4643 4.028 17.7753 4.63206C17.0807 5.2411 16.5817 6.173 16.5817 7.2143H18.0817ZM20.2 8.81556C20.2 9.56556 20.2003 9.56556 20.2007 9.56556C20.2008 9.56556 20.2011 9.56556 20.2013 9.56556C20.2018 9.56555 20.2023 9.56555 20.2028 9.56555C20.2039 9.56555 20.2051 9.56554 20.2064 9.56553C20.209 9.56552 20.212 9.56549 20.2156 9.56544C20.2227 9.56534 20.2317 9.56518 20.2424 9.56488C20.2639 9.56428 20.2926 9.56318 20.3274 9.56111C20.3967 9.557 20.4919 9.54903 20.6045 9.53347C20.8259 9.50288 21.1342 9.44037 21.453 9.30822C21.771 9.17641 22.1313 8.96199 22.4143 8.61004C22.707 8.24613 22.8817 7.77836 22.8817 7.2143H21.3817C21.3817 7.45083 21.315 7.58353 21.2454 7.66996C21.1663 7.76836 21.0436 7.85418 20.8787 7.92253C20.7146 7.99055 20.54 8.02813 20.3992 8.04759C20.3307 8.05705 20.2749 8.06159 20.2387 8.06374C20.2206 8.06481 20.2078 8.06526 20.201 8.06545C20.1976 8.06555 20.1957 8.06557 20.1955 8.06557C20.1954 8.06558 20.1957 8.06557 20.1964 8.06557C20.1968 8.06556 20.1973 8.06556 20.1979 8.06556C20.1982 8.06556 20.1985 8.06556 20.1988 8.06556C20.199 8.06556 20.1993 8.06556 20.1994 8.06556C20.1997 8.06556 20.2 8.06556 20.2 8.81556ZM22.8817 7.2143C22.8817 6.65428 23.1554 6.11833 23.5642 5.75993C23.9787 5.39654 24.4345 5.29137 24.7828 5.39676L25.2172 3.96104C24.2426 3.66613 23.2643 4.028 22.5753 4.63206C21.8807 5.2411 21.3817 6.173 21.3817 7.2143H22.8817Z" fill="#960D00"/>
</svg>
