<svg width="30" height="24" viewBox="0 0 30 24" fill="none" xmlns="http://www.w3.org/2000/svg">
<path d="M27.1191 14.3197L27.6184 14.3464L27.6195 14.3243L27.6188 14.3023L27.1191 14.3197ZM26.6922 22.3199L26.1929 22.2933L26.1922 22.3066V22.3199H26.6922ZM28.4952 22.3199H28.9952V22.3125L28.995 22.3051L28.4952 22.3199ZM28.2567 14.2743L27.762 14.202L27.7557 14.2453L27.7569 14.2891L28.2567 14.2743ZM4.34494 1.53176L4.84479 1.51947C4.83812 1.2482 4.61629 1.03176 4.34494 1.03176V1.53176ZM3.41236 8.28384L3.14365 7.86218C2.99945 7.95408 2.9122 8.11329 2.91236 8.28429L3.41236 8.28384ZM3.42498 22.3194H3.92498L3.92498 22.319L3.42498 22.3194ZM1.62202 22.3194L1.12202 22.3064V22.3194H1.62202ZM1.98757 8.28631L2.4874 8.29933C2.492 8.12289 2.40323 7.9571 2.25384 7.86311L1.98757 8.28631ZM1.05048 1.53176V1.03176C0.779127 1.03176 0.557302 1.2482 0.550634 1.51947L1.05048 1.53176ZM3.19748 1.53176C3.19748 1.25562 2.97363 1.03176 2.69748 1.03176C2.42134 1.03176 2.19748 1.25562 2.19748 1.53176H3.19748ZM2.19748 6.26577C2.19748 6.54192 2.42134 6.76577 2.69748 6.76577C2.97363 6.76577 3.19748 6.54192 3.19748 6.26577H2.19748ZM29.5 6.25142C29.5 4.66747 28.883 3.07985 28.2813 2.01662C27.9821 1.48805 27.6648 1.04978 27.3961 0.796079C27.3271 0.730962 27.2498 0.666897 27.1665 0.615843C27.0925 0.570518 26.9643 0.504226 26.8039 0.500193C26.6004 0.495073 26.4061 0.593176 26.2927 0.776636C26.204 0.920259 26.1922 1.07258 26.1922 1.16624H27.1922C27.1922 1.14482 27.1984 1.21325 27.1435 1.30214C27.064 1.43087 26.9193 1.50341 26.7788 1.49988C26.6815 1.49743 26.6299 1.45988 26.6439 1.46843C26.6485 1.47125 26.6703 1.48619 26.7096 1.52321C26.8735 1.67804 27.1331 2.01824 27.411 2.50914C27.9631 3.48485 28.5 4.90012 28.5 6.25142H29.5ZM26.1922 1.16624C26.1922 1.63766 26.2995 4.94001 26.4059 8.10503C26.4593 9.69186 26.5126 11.2499 26.5527 12.4112C26.5727 12.9918 26.5893 13.4733 26.601 13.8096C26.6069 13.9778 26.6114 14.1097 26.6146 14.1995C26.6161 14.2444 26.6173 14.2788 26.6181 14.302C26.6185 14.3136 26.6189 14.3224 26.6191 14.3283C26.6192 14.3312 26.6192 14.3335 26.6193 14.3349C26.6193 14.3357 26.6193 14.3362 26.6193 14.3366C26.6194 14.3368 26.6194 14.3369 26.6194 14.337C26.6194 14.3371 26.6194 14.3372 27.1191 14.3197C27.6188 14.3023 27.6188 14.3023 27.6188 14.3022C27.6187 14.3021 27.6187 14.3019 27.6187 14.3017C27.6187 14.3014 27.6187 14.3008 27.6187 14.3001C27.6186 14.2986 27.6186 14.2964 27.6184 14.2934C27.6182 14.2876 27.6179 14.2788 27.6175 14.2672C27.6167 14.244 27.6155 14.2096 27.614 14.1647C27.6108 14.0749 27.6063 13.9431 27.6004 13.775C27.5887 13.4387 27.5721 12.9573 27.5521 12.3767C27.5121 11.2156 27.4587 9.65788 27.4054 8.07142C27.2984 4.88985 27.1922 1.61545 27.1922 1.16624H26.1922ZM26.6198 14.2931L26.1929 22.2933L27.1915 22.3465L27.6184 14.3464L26.6198 14.2931ZM26.1922 22.3199C26.1922 22.7005 26.3298 23.0736 26.5869 23.3554L27.3256 22.6813C27.2446 22.5926 27.1922 22.4633 27.1922 22.3199H26.1922ZM26.5869 23.3554C26.8455 23.6387 27.2065 23.8077 27.5937 23.8077V22.8077C27.5027 22.8077 27.4051 22.7685 27.3256 22.6813L26.5869 23.3554ZM27.5937 23.8077C27.9809 23.8077 28.3419 23.6387 28.6005 23.3554L27.8618 22.6813C27.7822 22.7685 27.6846 22.8077 27.5937 22.8077V23.8077ZM28.6005 23.3554C28.8576 23.0736 28.9952 22.7005 28.9952 22.3199H27.9952C27.9952 22.4633 27.9428 22.5926 27.8618 22.6813L28.6005 23.3554ZM28.995 22.3051L28.7565 14.2595L27.7569 14.2891L27.9954 22.3347L28.995 22.3051ZM28.2567 14.2743C28.7515 14.3466 28.7515 14.3465 28.7515 14.3465C28.7515 14.3464 28.7515 14.3464 28.7515 14.3463C28.7515 14.3461 28.7516 14.3458 28.7516 14.3455C28.7517 14.3448 28.7519 14.3438 28.7521 14.3426C28.7524 14.34 28.753 14.3362 28.7537 14.3312C28.7551 14.3213 28.7573 14.3066 28.76 14.2874C28.7655 14.2489 28.7736 14.1924 28.7838 14.1194C28.8043 13.9736 28.8335 13.7622 28.8685 13.4995C28.9385 12.9743 29.0318 12.2433 29.1252 11.4199C29.3112 9.77955 29.5 7.74957 29.5 6.25142H28.5C28.5 7.6885 28.3172 9.66996 28.1315 11.3072C28.0391 12.1227 27.9466 12.847 27.8772 13.3674C27.8426 13.6276 27.8137 13.8366 27.7935 13.9805C27.7834 14.0524 27.7755 14.108 27.7701 14.1455C27.7674 14.1643 27.7654 14.1785 27.764 14.188C27.7633 14.1927 27.7628 14.1963 27.7625 14.1986C27.7623 14.1998 27.7622 14.2007 27.7621 14.2013C27.7621 14.2015 27.762 14.2017 27.762 14.2019C27.762 14.2019 27.762 14.202 27.762 14.202C27.762 14.202 27.762 14.202 28.2567 14.2743ZM4.34494 1.53176C3.84509 1.54405 3.84509 1.54405 3.84509 1.54406C3.84509 1.54407 3.84509 1.54409 3.84509 1.54412C3.84509 1.54417 3.84509 1.54426 3.8451 1.54438C3.8451 1.54461 3.84511 1.54497 3.84512 1.54545C3.84515 1.54642 3.84518 1.54787 3.84523 1.54981C3.84532 1.5537 3.84546 1.55952 3.84565 1.56721C3.84601 1.5826 3.84655 1.60548 3.84724 1.63532C3.84861 1.695 3.85058 1.78254 3.85294 1.89372C3.85766 2.11608 3.86395 2.43295 3.87025 2.81065C3.88284 3.56635 3.89542 4.56419 3.89542 5.5353H4.89542C4.89542 4.55649 4.88275 3.55257 4.87011 2.79398C4.86378 2.41453 4.85746 2.09612 4.85271 1.8725C4.85034 1.76068 4.84836 1.67254 4.84697 1.6123C4.84628 1.58218 4.84573 1.55904 4.84536 1.54339C4.84518 1.53557 4.84503 1.52962 4.84494 1.52561C4.84489 1.5236 4.84485 1.52209 4.84482 1.52106C4.84481 1.52055 4.8448 1.52016 4.8448 1.51989C4.84479 1.51976 4.84479 1.51966 4.84479 1.51959C4.84479 1.51955 4.84479 1.51953 4.84479 1.51951C4.84479 1.51949 4.84479 1.51947 4.34494 1.53176ZM3.89542 5.5353C3.89542 6.94579 3.49907 7.63568 3.14365 7.86218L3.68107 8.7055C4.48044 8.19609 4.89542 7.04868 4.89542 5.5353H3.89542ZM2.91236 8.28429L2.92498 22.3199L3.92498 22.319L3.91236 8.28339L2.91236 8.28429ZM2.92498 22.3194C2.92498 22.4628 2.87258 22.5921 2.79162 22.6809L3.53026 23.355C3.78742 23.0732 3.92498 22.7 3.92498 22.3194H2.92498ZM2.79162 22.6809C2.71206 22.768 2.61446 22.8072 2.5235 22.8072V23.8072C2.91071 23.8072 3.27171 23.6383 3.53026 23.355L2.79162 22.6809ZM2.5235 22.8072C2.43254 22.8072 2.33494 22.768 2.25538 22.6809L1.51674 23.355C1.77529 23.6383 2.13629 23.8072 2.5235 23.8072V22.8072ZM2.25538 22.6809C2.17442 22.5921 2.12202 22.4628 2.12202 22.3194H1.12202C1.12202 22.7 1.25957 23.0732 1.51674 23.355L2.25538 22.6809ZM2.12185 22.3325L2.4874 8.29933L1.48774 8.27329L1.12219 22.3064L2.12185 22.3325ZM2.25384 7.86311C1.89842 7.63948 1.5 6.95046 1.5 5.5353H0.5C0.5 7.05191 0.916515 8.20315 1.7213 8.70951L2.25384 7.86311ZM1.5 5.5353C1.5 4.56419 1.51258 3.56635 1.52517 2.81065C1.53147 2.43295 1.53776 2.11608 1.54248 1.89372C1.54484 1.78254 1.54681 1.695 1.54818 1.63532C1.54887 1.60548 1.54941 1.5826 1.54977 1.56721C1.54996 1.55952 1.5501 1.5537 1.55019 1.54981C1.55024 1.54787 1.55027 1.54642 1.5503 1.54545C1.55031 1.54497 1.55032 1.54461 1.55032 1.54438C1.55033 1.54426 1.55033 1.54417 1.55033 1.54412C1.55033 1.54409 1.55033 1.54407 1.55033 1.54406C1.55033 1.54405 1.55033 1.54405 1.05048 1.53176C0.550634 1.51947 0.550633 1.51949 0.550633 1.51951C0.550633 1.51953 0.550632 1.51955 0.550631 1.51959C0.550629 1.51966 0.550627 1.51976 0.550624 1.51989C0.550617 1.52016 0.550607 1.52055 0.550595 1.52106C0.55057 1.52209 0.550533 1.5236 0.550484 1.52561C0.550387 1.52962 0.550244 1.53557 0.550058 1.54339C0.549685 1.55904 0.549139 1.58218 0.548446 1.6123C0.547059 1.67254 0.545081 1.76068 0.542707 1.8725C0.537961 2.09612 0.531636 2.41453 0.525311 2.79398C0.512666 3.55257 0.5 4.55649 0.5 5.5353H1.5ZM1.05048 2.03176H4.34494V1.03176H1.05048V2.03176ZM2.19748 1.53176V6.26577H3.19748V1.53176H2.19748ZM23.9195 11.0235C23.9195 16.2353 20.0737 20.3807 15.4236 20.3807V21.3807C20.7101 21.3807 24.9195 16.6996 24.9195 11.0235H23.9195ZM15.4236 20.3807C10.7735 20.3807 6.92776 16.2353 6.92776 11.0235H5.92776C5.92776 16.6996 10.1371 21.3807 15.4236 21.3807V20.3807ZM6.92776 11.0235C6.92776 5.81161 10.7735 1.66626 15.4236 1.66626V0.666256C10.1371 0.666256 5.92776 5.34735 5.92776 11.0235H6.92776ZM15.4236 1.66626C20.0737 1.66626 23.9195 5.81161 23.9195 11.0235H24.9195C24.9195 5.34735 20.7101 0.666256 15.4236 0.666256V1.66626ZM20.4015 11.0441C20.4015 14.1259 18.1316 16.5445 15.4254 16.5445V17.5445C18.768 17.5445 21.4015 14.5902 21.4015 11.0441H20.4015ZM15.4254 16.5445C12.7193 16.5445 10.4494 14.1259 10.4494 11.0441H9.4494C9.4494 14.5902 12.0829 17.5445 15.4254 17.5445V16.5445ZM10.4494 11.0441C10.4494 7.96235 12.7193 5.54377 15.4254 5.54377V4.54377C12.0829 4.54377 9.4494 7.49809 9.4494 11.0441H10.4494ZM15.4254 5.54377C18.1316 5.54377 20.4015 7.96235 20.4015 11.0441H21.4015C21.4015 7.49809 18.768 4.54377 15.4254 4.54377V5.54377Z" fill="#D92211"/>
</svg>
