<svg width="22" height="23" viewBox="0 0 22 23" fill="none" xmlns="http://www.w3.org/2000/svg">
<path d="M11 6.69196C11 6.49476 10.9276 6.30563 10.7986 6.16619C10.6697 6.02675 10.4948 5.94841 10.3125 5.94841C10.1302 5.94841 9.9553 6.02675 9.82637 6.16619C9.69743 6.30563 9.625 6.49476 9.625 6.69196V12.6404C9.625 12.8376 9.69743 13.0267 9.82637 13.1661C9.9553 13.3056 10.1302 13.3839 10.3125 13.3839H14.4375C14.6198 13.3839 14.7947 13.3056 14.9236 13.1661C15.0526 13.0267 15.125 12.8376 15.125 12.6404C15.125 12.4432 15.0526 12.254 14.9236 12.1146C14.7947 11.9752 14.6198 11.8968 14.4375 11.8968H11V6.69196ZM1.86038 8.62519C1.28463 8.18659 0.815001 7.6045 0.491187 6.92814C0.167372 6.25178 -0.00110339 5.50104 5.43808e-06 4.7394C5.43808e-06 2.12804 1.94425 0 4.35325 0C5.83413 0 7.139 0.806009 7.92413 2.02989C8.9153 1.66924 9.95424 1.4859 11 1.4871C12.0423 1.4858 13.0779 1.66762 14.0662 2.02543C14.4665 1.40061 15.0009 0.889983 15.6235 0.537247C16.2461 0.184511 16.9384 0.000170568 17.6412 0C18.2141 0.00039038 18.7813 0.122837 19.3104 0.360347C19.8395 0.597857 20.3202 0.945776 20.725 1.38423C21.1297 1.82269 21.4507 2.34309 21.6694 2.91572C21.8882 3.48834 22.0005 4.10197 22 4.72155C22 6.32762 21.2602 7.74483 20.1314 8.59843C20.4517 9.63494 20.625 10.7443 20.625 11.8968C20.6282 14.4017 19.793 16.8231 18.2737 18.7137L20.4242 21.0366C20.5532 21.1762 20.6255 21.3655 20.6254 21.5628C20.6253 21.7601 20.5527 21.9493 20.4236 22.0887C20.2945 22.2281 20.1195 22.3063 19.937 22.3062C19.7546 22.3061 19.5797 22.2276 19.4507 22.0879L17.303 19.7651C15.5547 21.4077 13.3158 22.3105 11 22.3065C8.68398 22.31 6.44506 21.4068 4.697 19.7636L2.54925 22.0894C2.48542 22.1586 2.40963 22.2134 2.3262 22.2509C2.24276 22.2883 2.15332 22.3076 2.06299 22.3077C1.97266 22.3078 1.88319 22.2886 1.79971 22.2513C1.71623 22.2139 1.64036 22.1592 1.57644 22.0902C1.51252 22.0211 1.4618 21.9392 1.42717 21.8489C1.39254 21.7587 1.37469 21.662 1.37462 21.5643C1.37456 21.4666 1.39229 21.3698 1.4268 21.2795C1.46131 21.1892 1.51192 21.1072 1.57575 21.038L3.72488 18.7137C2.20608 16.8229 1.37138 14.4015 1.375 11.8968C1.375 10.7532 1.5455 9.65427 1.86038 8.62519ZM1.375 4.7394C1.375 5.72386 1.77513 6.60571 2.40625 7.20204C3.32821 5.2346 4.80191 3.63295 6.6165 2.62622C6.33878 2.26947 5.99233 1.98267 5.60138 1.7859C5.21044 1.58913 4.78446 1.48715 4.35325 1.4871C3.96022 1.48905 3.5714 1.57473 3.20899 1.73925C2.84658 1.90376 2.5177 2.14389 2.24112 2.44592C1.96455 2.74794 1.7457 3.10594 1.59709 3.49946C1.44848 3.89299 1.37301 4.31432 1.375 4.7394ZM19.5827 7.17824C20.2207 6.58489 20.625 5.70601 20.625 4.72155C20.6255 4.29726 20.5488 3.87701 20.3991 3.4848C20.2494 3.0926 20.0298 2.73614 19.7527 2.43577C19.4756 2.13541 19.1465 1.89703 18.7842 1.73425C18.422 1.57147 18.0336 1.48749 17.6412 1.4871C16.7337 1.4871 15.9211 1.9258 15.3725 2.62176C17.1836 3.62433 18.656 5.21938 19.58 7.17973L19.5827 7.17824ZM2.75 11.8968C2.75 14.2632 3.6192 16.5327 5.16637 18.2061C6.71355 19.8794 8.81197 20.8194 11 20.8194C13.188 20.8194 15.2865 19.8794 16.8336 18.2061C18.3808 16.5327 19.25 14.2632 19.25 11.8968C19.25 9.53039 18.3808 7.26089 16.8336 5.58758C15.2865 3.91426 13.188 2.9742 11 2.9742C8.81197 2.9742 6.71355 3.91426 5.16637 5.58758C3.6192 7.26089 2.75 9.53039 2.75 11.8968Z" fill="#D92211"/>
</svg>
