<svg width="24" height="24" viewBox="0 0 24 24" fill="none" xmlns="http://www.w3.org/2000/svg">
<g clip-path="url(#clip0_49_6)">
<path d="M23.9531 4.57009C23.0546 4.96569 22.1027 5.22683 21.1281 5.34509C22.1542 4.72834 22.9225 3.76113 23.2911 2.62209C22.3401 3.17709 21.2861 3.58109 20.1641 3.80609C19.4239 3.01452 18.443 2.48951 17.3738 2.31259C16.3045 2.13567 15.2068 2.31674 14.2511 2.82768C13.2953 3.33862 12.535 4.15084 12.0882 5.13821C11.6414 6.12558 11.5331 7.23286 11.7801 8.28809C7.69012 8.09509 4.06712 6.13009 1.64012 3.16209C1.19892 3.9119 0.968786 4.76711 0.974122 5.63709C0.974122 7.34709 1.84412 8.85009 3.16212 9.73309C2.38098 9.70822 1.61709 9.49702 0.934122 9.11709V9.17709C0.933679 10.3135 1.32639 11.415 2.04563 12.2948C2.76487 13.1747 3.76634 13.7786 4.88012 14.0041C4.15842 14.1975 3.40254 14.2265 2.66812 14.0891C2.98424 15.0671 3.59779 15.922 4.42314 16.5346C5.24849 17.1471 6.24447 17.4868 7.27212 17.5061C5.53165 18.872 3.3826 19.6134 1.17012 19.6111C0.780122 19.6111 0.391122 19.5881 0.00012207 19.5441C2.25583 20.9884 4.87864 21.7551 7.55712 21.7531C16.6101 21.7531 21.5551 14.2571 21.5551 7.76809C21.5551 7.55809 21.5551 7.34809 21.5401 7.13809C22.5061 6.44295 23.3394 5.57991 24.0001 4.59009L23.9531 4.57009Z" fill="white"/>
</g>
<defs>
<clipPath id="clip0_49_6">
<rect width="24" height="24" fill="white" transform="translate(0.00012207)"/>
</clipPath>
</defs>
</svg>
